<svg xmlns="http://www.w3.org/2000/svg" xmlns:xlink="http://www.w3.org/1999/xlink" width="0" height="0" style="display:none;"><symbol viewBox="0 0 14 22" id="minecraft-titling-048">
    <title>048</title>
    <g id="048" stroke="none" stroke-width="1" fill="none" fill-rule="evenodd">
        <path d="M11,2 L11,4 L13,4 L13,18 L11,18 L11,20 L3,20 L3,18 L1,18 L1,4 L3,4 L3,2 L11,2 Z M8,6 L6,6 L6,16 L8,16 L8,6 Z" id="Combined-Shape" fill="#000000"></path>
    </g>
</symbol><symbol viewBox="0 0 13 22" id="minecraft-titling-049">
    <title>049</title>
    <g id="049" stroke="none" stroke-width="1" fill="none" fill-rule="evenodd">
        <polygon id="Fill-1" fill="#000000" points="9 16 9 2 4 2 4 4 1 4 1 8 4 8 4 16 1 16 1 20 12 20 12 16"></polygon>
    </g>
</symbol><symbol viewBox="0 0 14 22" id="minecraft-titling-050">
    <title>050</title>
    <g id="050" stroke="none" stroke-width="1" fill="none" fill-rule="evenodd">
        <polygon id="Fill-1" fill="#000000" points="8 6 8 9 3 9 3 11 1 11 1 20 13 20 13 16 6 16 6 13 11 13 11 11 13 11 13 2 1 2 1 6"></polygon>
    </g>
</symbol><symbol viewBox="0 0 14 22" id="minecraft-titling-051">
    <title>051</title>
    <g id="051" stroke="none" stroke-width="1" fill="none" fill-rule="evenodd">
        <polygon id="Fill-1" fill="#000000" points="13 10 11 10 11 12 13 12 13 20 1 20 1 16 8 16 8 13 1 13 1 9 8 9 8 6 1 6 1 2 13 2"></polygon>
    </g>
</symbol><symbol viewBox="0 0 15 22" id="minecraft-titling-052">
    <title>052</title>
    <g id="052" stroke="none" stroke-width="1" fill="none" fill-rule="evenodd">
        <polygon id="Fill-1" fill="#000000" points="8 2 13 2 13 10 15 10 15 14 13 14 13 20 8 20 8 14 1 14 1 2 6 2 6 10 8 10"></polygon>
    </g>
</symbol><symbol viewBox="0 0 14 22" id="minecraft-titling-053">
    <title>053</title>
    <g id="053" stroke="none" stroke-width="1" fill="none" fill-rule="evenodd">
        <polygon id="Fill-1" fill="#000000" points="11 20 1 20 1 16 8 16 8 13 1 13 1 2 13 2 13 6 6 6 6 9 11 9 11 11 13 11 13 18 11 18"></polygon>
    </g>
</symbol><symbol viewBox="0 0 14 22" id="minecraft-titling-054">
    <title>054</title>
    <g id="054" stroke="none" stroke-width="1" fill="none" fill-rule="evenodd">
        <path d="M13,2 L13,20 L1,20 L1,16 L8,16 L8,13 L1,13 L1,2 L13,2 Z M8,6 L6,6 L6,9 L8,9 L8,6 Z" id="Combined-Shape" fill="#000000" transform="translate(7.000000, 11.000000) rotate(180.000000) translate(-7.000000, -11.000000) "></path>
    </g>
</symbol><symbol viewBox="0 0 14 22" id="minecraft-titling-055">
    <title>055</title>
    <g id="055" stroke="none" stroke-width="1" fill="none" fill-rule="evenodd">
        <polygon id="Fill-1" fill="#000000" points="13 20 8 20 8 6 1 6 1 2 13 2"></polygon>
    </g>
</symbol><symbol viewBox="0 0 14 22" id="minecraft-titling-056">
    <title>056</title>
    <g id="056" stroke="none" stroke-width="1" fill="none" fill-rule="evenodd">
        <path d="M13,2 L13,9 L11,9 L11,11.0464 L13.0082,11 L13,20 L1,20 L1,11 L3,11 L3,9 L1,9 L1,2 L13,2 Z M8,13 L6,13 L6,16 L8,16 L8,13 Z M8,6 L6,6 L6,9 L8,9 L8,6 Z" id="Combined-Shape" fill="#000000"></path>
    </g>
</symbol><symbol viewBox="0 0 14 22" id="minecraft-titling-057">
    <title>057</title>
    <g id="057" stroke="none" stroke-width="1" fill="none" fill-rule="evenodd">
        <path d="M13,2 L13,20 L1,20 L1,16 L8,16 L8,13 L1,13 L1,2 L13,2 Z M8,6 L6,6 L6,9 L8,9 L8,6 Z" id="Combined-Shape" fill="#000000"></path>
    </g>
</symbol><symbol viewBox="0 0 6 22" id="minecraft-titling-058">
    <title>058</title>
    <g id="058" stroke="none" stroke-width="1" fill="none" fill-rule="evenodd">
        <polygon id="Fill-1" fill="#000000" points="1 12 5 12 5 8 1 8"></polygon>
        <polygon id="Fill-1-Copy" fill="#000000" points="1 20 5 20 5 16 1 16"></polygon>
    </g>
</symbol><symbol viewBox="0 0 7 22" id="minecraft-titling-059">
    <title>059</title>
    <g id="059" stroke="none" stroke-width="1" fill="none" fill-rule="evenodd">
        <polygon id="Fill-1" fill="#000000" points="2 12 6 12 6 8 2 8"></polygon>
        <path d="M6,16 L6,20 L4,20 L4,22 L1,22 L1,18 L2,18 L2,16 L6,16 Z" id="Combined-Shape" fill="#000000"></path>
    </g>
</symbol><symbol viewBox="0 0 16 22" id="minecraft-titling-060">
    <title>060</title>
    <g id="060" stroke="none" stroke-width="1" fill="none" fill-rule="evenodd">
        <path d="M6,2 L6,4 L9,4 L9,6 L12,6 L12.001,8 L15,8 L15,14 L12.001,14 L12,16 L9,16 L9,18 L6,18 L6,20 L1,20 L1,16 L4,16 L4,14 L7,14 L7,12 L10.001,12 L10.001,10 L7,10 L7,8 L4,8 L4,6 L1,6 L1,2 L6,2 Z" id="Combined-Shape" fill="#000000" transform="translate(8.000000, 11.000000) scale(-1, 1) translate(-8.000000, -11.000000) "></path>
    </g>
</symbol><symbol viewBox="0 0 14 22" id="minecraft-titling-061">
    <title>061</title>
    <g id="061" stroke="none" stroke-width="1" fill="none" fill-rule="evenodd">
        <rect id="Rectangle" fill="#000000" x="1" y="6" width="12" height="4"></rect>
        <rect id="Rectangle" fill="#000000" x="1" y="12" width="12" height="4"></rect>
    </g>
</symbol><symbol viewBox="0 0 16 22" id="minecraft-titling-062">
    <title>062</title>
    <g id="062" stroke="none" stroke-width="1" fill="none" fill-rule="evenodd">
        <path d="M6,2 L6,4 L9,4 L9,6 L12,6 L12.001,8 L15,8 L15,14 L12.001,14 L12,16 L9,16 L9,18 L6,18 L6,20 L1,20 L1,16 L4,16 L4,14 L7,14 L7,12 L10.001,12 L10.001,10 L7,10 L7,8 L4,8 L4,6 L1,6 L1,2 L6,2 Z" id="Combined-Shape" fill="#000000"></path>
    </g>
</symbol><symbol viewBox="0 0 14 22" id="minecraft-titling-063">
    <title>063</title>
    <g id="063" stroke="none" stroke-width="1" fill="none" fill-rule="evenodd">
        <rect id="Rectangle" fill="#000000" x="5" y="16" width="4" height="4"></rect>
        <path d="M13,14 L5,14 L5,10 L8,10 L8,6 L6,6 L6,8 L1,8 L1,2 L13,2 L13,14 Z" id="Combined-Shape" fill="#000000"></path>
    </g>
</symbol><symbol viewBox="0 0 22 22" id="minecraft-titling-064">
    <title>064</title>
    <g id="064" stroke="none" stroke-width="1" fill="none" fill-rule="evenodd">
        <path d="M5,18 L17,18 L17,22 L1,22 L1,0 L21,0 L21,16 L7,16 L7,6 L15,6 L15,13 L17,13 L17,4 L5,4 L5,18 Z M12,9 L10,9 L10,13 L12,13 L12,9 Z" id="Combined-Shape" fill="#000000"></path>
    </g>
</symbol><symbol viewBox="0 0 14 22" id="minecraft-titling-065">
    <title>065</title>
    <g id="065" stroke="none" stroke-width="1" fill="none" fill-rule="evenodd">
        <path d="M13,2 L13,20 L8,20 L8,14 L6,14 L6,20 L1,20 L1,2 L13,2 Z M8,8 L6,8 L6,9 L5,9 L5,12 L6,12 L6,11 L8,11 L8,12 L9,12 L9,9 L8,9 L8,8 Z M6,6 L4,6 L4,8 L6,8 L6,6 Z M10,6 L8,6 L8,8 L10,8 L10,6 Z" id="Combined-Shape" fill="#000000"></path>
    </g>
</symbol><symbol viewBox="0 0 14 22" id="minecraft-titling-066">
    <title>066</title>
    <g id="066" stroke="none" stroke-width="1" fill="none" fill-rule="evenodd">
        <path d="M1,20 L1,2 L13,2 L13,9 L11,9 L11,11.0464 L13.0082,11 L13,20 L1,20 Z M6,9 L8,9 L8,6 L6,6 L6,9 Z M6,16 L8,16 L8,13 L6,13 L6,16 Z" id="Fill-1" fill="#000000"></path>
    </g>
</symbol><symbol viewBox="0 0 14 22" id="minecraft-titling-067">
    <title>067</title>
    <g id="067" stroke="none" stroke-width="1" fill="none" fill-rule="evenodd">
        <polygon id="Fill-1" fill="#000000" points="1 20 13 20 13 16 6 16 6 6 13 6 13 2 1 2"></polygon>
    </g>
</symbol><symbol viewBox="0 0 14 22" id="minecraft-titling-068">
    <title>068</title>
    <g id="068" stroke="none" stroke-width="1" fill="none" fill-rule="evenodd">
        <path d="M1,20 L1,2 L11,2 L11,4 L13,4 L13,18 L11,18 L11,20 L1,20 Z M6,16 L8,16 L8,6 L6,6 L6,16 Z" id="Fill-1" fill="#000000"></path>
    </g>
</symbol><symbol viewBox="0 0 14 22" id="minecraft-titling-069">
    <title>069</title>
    <g id="069" stroke="none" stroke-width="1" fill="none" fill-rule="evenodd">
        <polygon id="Fill-1" fill="#000000" points="1 20 13 20 13 16 6 16 6 13 13 13 13 9 6 9 6 6 13 6 13 2 1 2"></polygon>
    </g>
</symbol><symbol viewBox="0 0 14 22" id="minecraft-titling-070">
    <title>070</title>
    <g id="070" stroke="none" stroke-width="1" fill="none" fill-rule="evenodd">
        <polygon id="Fill-1" fill="#000000" points="1 20 6 20 6 13 13 13 13 9 6 9 6 6 13 6 13 2 1 2"></polygon>
    </g>
</symbol><symbol viewBox="0 0 14 22" id="minecraft-titling-071">
    <title>071</title>
    <g id="071" stroke="none" stroke-width="1" fill="none" fill-rule="evenodd">
        <polygon id="Fill-1" fill="#000000" points="1 20 13 20 13 9 8 9 8 16 6 16 6 6 13 6 13 2 1 2"></polygon>
    </g>
</symbol><symbol viewBox="0 0 14 22" id="minecraft-titling-072">
    <title>072</title>
    <g id="072" stroke="none" stroke-width="1" fill="none" fill-rule="evenodd">
        <polygon id="Fill-1" fill="#000000" points="8 2 8 9 6 9 6 2 1 2 1 20 6 20 6 13 8 13 8 20 13 20 13 2"></polygon>
    </g>
</symbol><symbol viewBox="0 0 7 22" id="minecraft-titling-073">
    <title>073</title>
    <g id="073" stroke="none" stroke-width="1" fill="none" fill-rule="evenodd">
        <polygon id="Fill-1" fill="#000000" points="1 20 6 20 6 2 1 2"></polygon>
    </g>
</symbol><symbol viewBox="0 0 14 22" id="minecraft-titling-074">
    <title>074</title>
    <g id="074" stroke="none" stroke-width="1" fill="none" fill-rule="evenodd">
        <polygon id="Fill-1" fill="#000000" points="13 20 1 20 1 12 6 12 6 16 8 16 8 2 13 2"></polygon>
    </g>
</symbol><symbol viewBox="0 0 14 22" id="minecraft-titling-075">
    <title>075</title>
    <g id="075" stroke="none" stroke-width="1" fill="none" fill-rule="evenodd">
        <polygon id="Fill-1" fill="#000000" points="6 2 1 2 1 20 6 20 6 13 8 13 8 20 13 20 13 12 10 12 10 10 13 10 13 2 8 2 8 9 6 9"></polygon>
    </g>
</symbol><symbol viewBox="0 0 13 22" id="minecraft-titling-076">
    <title>076</title>
    <g id="076" stroke="none" stroke-width="1" fill="none" fill-rule="evenodd">
        <polygon id="Fill-1" fill="#000000" points="1 20 13 20 13 16 6 16 6 2 1 2"></polygon>
    </g>
</symbol><symbol viewBox="0 0 20 22" id="minecraft-titling-077">
    <title>077</title>
    <g id="077" stroke="none" stroke-width="1" fill="none" fill-rule="evenodd">
        <polygon id="Fill-1" fill="#000000" points="6 5 6 2 1 2 1 20 6 20 6 12 8 12 8 16 12 16 12 12 14 12 14 20 19 20 19 2 14 2 14 5 12 5 12 8 8 8 8 5"></polygon>
    </g>
</symbol><symbol viewBox="0 0 16 22" id="minecraft-titling-078">
    <title>078</title>
    <g id="078" stroke="none" stroke-width="1" fill="none" fill-rule="evenodd">
        <polygon id="Fill-1" fill="#000000" points="6 6 6 2 1 2 1 20 6 20 6 11 8 11 8 14 10 14 10 20 15 20 15 2 10 2 10 9 8 9 8 6"></polygon>
    </g>
</symbol><symbol viewBox="0 0 14 22" id="minecraft-titling-079">
    <title>079</title>
    <g id="079" stroke="none" stroke-width="1" fill="none" fill-rule="evenodd">
        <path d="M1,20 L1,2 L13,2 L13,20 L1,20 Z M6,16 L8,16 L8,6 L6,6 L6,16 Z" id="Fill-1" fill="#000000"></path>
    </g>
</symbol><symbol viewBox="0 0 14 22" id="minecraft-titling-080">
    <title>080</title>
    <g id="080" stroke="none" stroke-width="1" fill="none" fill-rule="evenodd">
        <path d="M13,2 L13,14 L6,14 L6,20 L1,20 L1,2 L13,2 Z M8,6 L6,6 L6,10 L8,10 L8,6 Z" id="Combined-Shape" fill="#000000"></path>
    </g>
</symbol><symbol viewBox="0 0 15 22" id="minecraft-titling-081">
    <title>081</title>
    <g id="081" stroke="none" stroke-width="1" fill="none" fill-rule="evenodd">
        <path d="M13,16 L15,16 L15,20 L1,20 L1,2 L13,2 L13,16 Z M6,16 L8,16 L8,6 L6,6 L6,16 Z" id="Fill-1" fill="#000000"></path>
    </g>
</symbol><symbol viewBox="0 0 14 22" id="minecraft-titling-082">
    <title>082</title>
    <g id="082" stroke="none" stroke-width="1" fill="none" fill-rule="evenodd">
        <path d="M13,2 L13,10 L11,10 L11,12 L13,12 L13,20 L8,20 L8,13 L6,13 L6,20 L1,20 L1,2 L13,2 Z M8,6 L6,6 L6,10 L8,10 L8,6 Z" id="Combined-Shape" fill="#000000"></path>
    </g>
</symbol><symbol viewBox="0 0 14 22" id="minecraft-titling-083">
    <title>083</title>
    <g id="083" stroke="none" stroke-width="1" fill="none" fill-rule="evenodd">
        <polygon id="Fill-1" fill="#000000" points="1 11 3 11 3 13 8 13 8 16 1 16 1 20 13 20 13 9 6 9 6 6 13 6 13 2 1 2"></polygon>
    </g>
</symbol><symbol viewBox="0 0 13 22" id="minecraft-titling-084">
    <title>084</title>
    <g id="084" stroke="none" stroke-width="1" fill="none" fill-rule="evenodd">
        <polygon id="Fill-1" fill="#000000" points="4 6 4 20 9 20 9 6 13 6 13 2 0 2 0 6"></polygon>
    </g>
</symbol><symbol viewBox="0 0 14 22" id="minecraft-titling-085">
    <title>085</title>
    <g id="085" stroke="none" stroke-width="1" fill="none" fill-rule="evenodd">
        <polygon id="Fill-1" fill="#000000" points="6 2 6 16 8 16 8 2 13 2 13 20 1 20 1 2"></polygon>
    </g>
</symbol><symbol viewBox="0 0 14 22" id="minecraft-titling-086">
    <title>086</title>
    <g id="086" stroke="none" stroke-width="1" fill="none" fill-rule="evenodd">
        <polygon id="Fill-1" fill="#000000" points="1 14 1 2 6 2 6 11 8 11 8 2 13 2 13 14 11 14 11 17 9 17 9 20 5 20 5 17 3 17 3 14"></polygon>
    </g>
</symbol><symbol viewBox="0 0 20 22" id="minecraft-titling-087">
    <title>087</title>
    <g id="087" stroke="none" stroke-width="1" fill="none" fill-rule="evenodd">
        <polygon id="Fill-1" fill="#000000" points="6 2 6 11 8 11 8 7 12 7 12 11 14 11 14 2 19 2 19 17 17 17 17 20 12 20 12 15 8 15 8 20 3 20 3 17 1 17 1 2"></polygon>
    </g>
</symbol><symbol viewBox="0 0 14 22" id="minecraft-titling-088">
    <title>088</title>
    <g id="088" stroke="none" stroke-width="1" fill="none" fill-rule="evenodd">
        <polygon id="Fill-1" fill="#000000" points="1 10 4 10 4 12 1 12 1 20 6 20 6 13 8 13 8 20 13 20 13 12 10 12 10 10 13 10 13 2 8 2 8 9 6 9 6 2 1 2"></polygon>
    </g>
</symbol><symbol viewBox="0 0 15 22" id="minecraft-titling-089">
    <title>089</title>
    <g id="089" stroke="none" stroke-width="1" fill="none" fill-rule="evenodd">
        <polygon id="Fill-1" fill="#000000" points="1 11 1 2 6 2 6 9 9 9 9 2 14 2 14 11 12 11 12 13 10 13 10 20 5 20 5 13 3 13 3 11"></polygon>
    </g>
</symbol><symbol viewBox="0 0 14 22" id="minecraft-titling-090">
    <title>090</title>
    <g id="090" stroke="none" stroke-width="1" fill="none" fill-rule="evenodd">
        <polygon id="Fill-1" fill="#000000" points="8 6 8 8 6 8 6 10 4 10 4 13 1 13 1 20 13 20 13 16 6 16 6 14 8 14 8 12 10 12 10 9 13 9 13 2 1 2 1 6"></polygon>
    </g>
</symbol><symbol viewBox="0 0 11 22" id="minecraft-titling-091">
    <title>091</title>
    <g id="091" stroke="none" stroke-width="1" fill="none" fill-rule="evenodd">
        <path d="M1,22 L1,0 L10,0 L10,4 L6,4 L6,18 L10,18 L10,22 L1,22 Z" id="Combined-Shape" fill="#000000"></path>
    </g>
</symbol><symbol viewBox="0 0 14 22" id="minecraft-titling-092">
    <title>092</title>
    <g id="092" stroke="none" stroke-width="1" fill="none" fill-rule="evenodd">
        <rect id="Rectangle" fill="#000000" x="1" y="0" width="4" height="7"></rect>
        <rect id="Rectangle-Copy" fill="#000000" x="9" y="15" width="4" height="7"></rect>
        <rect id="Rectangle-Copy-2" fill="#000000" x="5" y="7" width="4" height="8"></rect>
    </g>
</symbol><symbol viewBox="0 0 11 22" id="minecraft-titling-093">
    <title>093</title>
    <g id="093" stroke="none" stroke-width="1" fill="none" fill-rule="evenodd">
        <path d="M1,22 L1,0 L10,0 L10,4 L6,4 L6,18 L10,18 L10,22 L1,22 Z" id="Combined-Shape" fill="#000000" transform="translate(5.500000, 11.000000) scale(-1, 1) translate(-5.500000, -11.000000) "></path>
    </g>
</symbol><symbol viewBox="0 0 10 22" id="minecraft-titling-094">
    <title>094</title>
    <g id="094" stroke="none" stroke-width="1" fill="none" fill-rule="evenodd">
        <path d="M4,8 L1,8 L1,3 L3,3 L3,0 L7,0 L7,3 L9,3 L9,8 L6,8 L6,5 L4,5 L4,8 Z" id="Combined-Shape" fill="#000000"></path>
    </g>
</symbol><symbol viewBox="0 0 14 22" id="minecraft-titling-095">
    <title>095</title>
    <g id="095" stroke="none" stroke-width="1" fill="none" fill-rule="evenodd">
        <polygon id="Fill-1" fill="#000000" points="1 22 13 22 13 19 1 19"></polygon>
    </g>
</symbol><symbol viewBox="0 0 8 22" id="minecraft-titling-096">
    <title>096</title>
    <g id="096" stroke="none" stroke-width="1" fill="none" fill-rule="evenodd">
        <path d="M3,0 L3,1 L5,1 L5,2 L7,2 L7,5 L5,5 L5,4 L3,4 L3,3 L1,3 L1,0 L3,0 Z" id="Combined-Shape" fill="#000000"></path>
    </g>
</symbol><symbol viewBox="0 0 14 22" id="minecraft-titling-097">
    <title>097</title>
    <g id="097" stroke="none" stroke-width="1" fill="none" fill-rule="evenodd">
        <path d="M13,2 L13,20 L8,20 L8,14 L6,14 L6,20 L1,20 L1,2 L13,2 Z M8,6 L6,6 L6,10 L8,10 L8,6 Z" id="Combined-Shape" fill="#000000"></path>
    </g>
</symbol><symbol viewBox="0 0 14 22" id="minecraft-titling-098">
    <title>098</title>
    <g id="098" stroke="none" stroke-width="1" fill="none" fill-rule="evenodd">
        <path d="M1,20 L1,2 L13,2 L13,9 L11,9 L11,11.0464 L13.0082,11 L13,20 L1,20 Z M6,9 L8,9 L8,6 L6,6 L6,9 Z M6,16 L8,16 L8,13 L6,13 L6,16 Z" id="Fill-1" fill="#000000"></path>
    </g>
</symbol><symbol viewBox="0 0 14 22" id="minecraft-titling-099">
    <title>099</title>
    <g id="099" stroke="none" stroke-width="1" fill="none" fill-rule="evenodd">
        <polygon id="Fill-1" fill="#000000" points="1 20 13 20 13 16 6 16 6 6 13 6 13 2 1 2"></polygon>
    </g>
</symbol><symbol viewBox="0 0 14 22" id="minecraft-titling-100">
    <title>100</title>
    <g id="100" stroke="none" stroke-width="1" fill="none" fill-rule="evenodd">
        <path d="M1,20 L1,2 L11,2 L11,4 L13,4 L13,18 L11,18 L11,20 L1,20 Z M6,16 L8,16 L8,6 L6,6 L6,16 Z" id="Fill-1" fill="#000000"></path>
    </g>
</symbol><symbol viewBox="0 0 14 22" id="minecraft-titling-101">
    <title>101</title>
    <g id="101" stroke="none" stroke-width="1" fill="none" fill-rule="evenodd">
        <polygon id="Fill-1" fill="#000000" points="1 20 13 20 13 16 6 16 6 13 13 13 13 9 6 9 6 6 13 6 13 2 1 2"></polygon>
    </g>
</symbol><symbol viewBox="0 0 14 22" id="minecraft-titling-102">
    <title>102</title>
    <g id="102" stroke="none" stroke-width="1" fill="none" fill-rule="evenodd">
        <polygon id="Fill-1" fill="#000000" points="1 20 6 20 6 13 13 13 13 9 6 9 6 6 13 6 13 2 1 2"></polygon>
    </g>
</symbol><symbol viewBox="0 0 14 22" id="minecraft-titling-103">
    <title>103</title>
    <g id="103" stroke="none" stroke-width="1" fill="none" fill-rule="evenodd">
        <polygon id="Fill-1" fill="#000000" points="1 20 13 20 13 9 8 9 8 16 6 16 6 6 13 6 13 2 1 2"></polygon>
    </g>
</symbol><symbol viewBox="0 0 14 22" id="minecraft-titling-104">
    <title>104</title>
    <g id="104" stroke="none" stroke-width="1" fill="none" fill-rule="evenodd">
        <polygon id="Fill-1" fill="#000000" points="8 2 8 9 6 9 6 2 1 2 1 20 6 20 6 13 8 13 8 20 13 20 13 2"></polygon>
    </g>
</symbol><symbol viewBox="0 0 7 22" id="minecraft-titling-105">
    <title>105</title>
    <g id="105" stroke="none" stroke-width="1" fill="none" fill-rule="evenodd">
        <polygon id="Fill-1" fill="#000000" points="1 20 6 20 6 2 1 2"></polygon>
    </g>
</symbol><symbol viewBox="0 0 14 22" id="minecraft-titling-106">
    <title>106</title>
    <g id="106" stroke="none" stroke-width="1" fill="none" fill-rule="evenodd">
        <polygon id="Fill-1" fill="#000000" points="13 20 1 20 1 12 6 12 6 16 8 16 8 2 13 2"></polygon>
    </g>
</symbol><symbol viewBox="0 0 14 22" id="minecraft-titling-107">
    <title>107</title>
    <g id="107" stroke="none" stroke-width="1" fill="none" fill-rule="evenodd">
        <polygon id="Fill-1" fill="#000000" points="6 2 1 2 1 20 6 20 6 13 8 13 8 20 13 20 13 12 10 12 10 10 13 10 13 2 8 2 8 9 6 9"></polygon>
    </g>
</symbol><symbol viewBox="0 0 13 22" id="minecraft-titling-108">
    <title>108</title>
    <g id="108" stroke="none" stroke-width="1" fill="none" fill-rule="evenodd">
        <polygon id="Fill-1" fill="#000000" points="1 20 13 20 13 16 6 16 6 2 1 2"></polygon>
    </g>
</symbol><symbol viewBox="0 0 20 22" id="minecraft-titling-109">
    <title>109</title>
    <g id="109" stroke="none" stroke-width="1" fill="none" fill-rule="evenodd">
        <polygon id="Fill-1" fill="#000000" points="6 5 6 2 1 2 1 20 6 20 6 12 8 12 8 16 12 16 12 12 14 12 14 20 19 20 19 2 14 2 14 5 12 5 12 8 8 8 8 5"></polygon>
    </g>
</symbol><symbol viewBox="0 0 16 22" id="minecraft-titling-110">
    <title>110</title>
    <g id="110" stroke="none" stroke-width="1" fill="none" fill-rule="evenodd">
        <polygon id="Fill-1" fill="#000000" points="6 6 6 2 1 2 1 20 6 20 6 11 8 11 8 14 10 14 10 20 15 20 15 2 10 2 10 9 8 9 8 6"></polygon>
    </g>
</symbol><symbol viewBox="0 0 14 22" id="minecraft-titling-111">
    <title>111</title>
    <g id="111" stroke="none" stroke-width="1" fill="none" fill-rule="evenodd">
        <path d="M1,20 L1,2 L13,2 L13,20 L1,20 Z M6,16 L8,16 L8,6 L6,6 L6,16 Z" id="Fill-1" fill="#000000"></path>
    </g>
</symbol><symbol viewBox="0 0 14 22" id="minecraft-titling-112">
    <title>112</title>
    <g id="112" stroke="none" stroke-width="1" fill="none" fill-rule="evenodd">
        <path d="M13,2 L13,14 L6,14 L6,20 L1,20 L1,2 L13,2 Z M8,6 L6,6 L6,10 L8,10 L8,6 Z" id="Combined-Shape" fill="#000000"></path>
    </g>
</symbol><symbol viewBox="0 0 15 22" id="minecraft-titling-113">
    <title>113</title>
    <g id="113" stroke="none" stroke-width="1" fill="none" fill-rule="evenodd">
        <path d="M13,16 L15,16 L15,20 L1,20 L1,2 L13,2 L13,16 Z M6,16 L8,16 L8,6 L6,6 L6,16 Z" id="Fill-1" fill="#000000"></path>
    </g>
</symbol><symbol viewBox="0 0 14 22" id="minecraft-titling-114">
    <title>114</title>
    <g id="114" stroke="none" stroke-width="1" fill="none" fill-rule="evenodd">
        <path d="M13,2 L13,10 L11,10 L11,12 L13,12 L13,20 L8,20 L8,13 L6,13 L6,20 L1,20 L1,2 L13,2 Z M8,6 L6,6 L6,10 L8,10 L8,6 Z" id="Combined-Shape" fill="#000000"></path>
    </g>
</symbol><symbol viewBox="0 0 14 22" id="minecraft-titling-115">
    <title>115</title>
    <g id="115" stroke="none" stroke-width="1" fill="none" fill-rule="evenodd">
        <polygon id="Fill-1" fill="#000000" points="1 11 3 11 3 13 8 13 8 16 1 16 1 20 13 20 13 9 6 9 6 6 13 6 13 2 1 2"></polygon>
    </g>
</symbol><symbol viewBox="0 0 13 22" id="minecraft-titling-116">
    <title>116</title>
    <g id="116" stroke="none" stroke-width="1" fill="none" fill-rule="evenodd">
        <polygon id="Fill-1" fill="#000000" points="4 6 4 20 9 20 9 6 13 6 13 2 0 2 0 6"></polygon>
    </g>
</symbol><symbol viewBox="0 0 14 22" id="minecraft-titling-117">
    <title>117</title>
    <g id="117" stroke="none" stroke-width="1" fill="none" fill-rule="evenodd">
        <polygon id="Fill-1" fill="#000000" points="6 2 6 16 8 16 8 2 13 2 13 20 1 20 1 2"></polygon>
    </g>
</symbol><symbol viewBox="0 0 14 22" id="minecraft-titling-118">
    <title>118</title>
    <g id="118" stroke="none" stroke-width="1" fill="none" fill-rule="evenodd">
        <polygon id="Fill-1" fill="#000000" points="1 14 1 2 6 2 6 11 8 11 8 2 13 2 13 14 11 14 11 17 9 17 9 20 5 20 5 17 3 17 3 14"></polygon>
    </g>
</symbol><symbol viewBox="0 0 20 22" id="minecraft-titling-119">
    <title>119</title>
    <g id="119" stroke="none" stroke-width="1" fill="none" fill-rule="evenodd">
        <polygon id="Fill-1" fill="#000000" points="6 2 6 11 8 11 8 7 12 7 12 11 14 11 14 2 19 2 19 17 17 17 17 20 12 20 12 15 8 15 8 20 3 20 3 17 1 17 1 2"></polygon>
    </g>
</symbol><symbol viewBox="0 0 14 22" id="minecraft-titling-120">
    <title>120</title>
    <g id="120" stroke="none" stroke-width="1" fill="none" fill-rule="evenodd">
        <polygon id="Fill-1" fill="#000000" points="1 10 4 10 4 12 1 12 1 20 6 20 6 13 8 13 8 20 13 20 13 12 10 12 10 10 13 10 13 2 8 2 8 9 6 9 6 2 1 2"></polygon>
    </g>
</symbol><symbol viewBox="0 0 15 22" id="minecraft-titling-121">
    <title>121</title>
    <g id="121" stroke="none" stroke-width="1" fill="none" fill-rule="evenodd">
        <polygon id="Fill-1" fill="#000000" points="1 11 1 2 6 2 6 9 9 9 9 2 14 2 14 11 12 11 12 13 10 13 10 20 5 20 5 13 3 13 3 11"></polygon>
    </g>
</symbol><symbol viewBox="0 0 14 22" id="minecraft-titling-122">
    <title>122</title>
    <g id="122" stroke="none" stroke-width="1" fill="none" fill-rule="evenodd">
        <polygon id="Fill-1" fill="#000000" points="8 6 8 8 6 8 6 10 4 10 4 13 1 13 1 20 13 20 13 16 6 16 6 14 8 14 8 12 10 12 10 9 13 9 13 2 1 2 1 6"></polygon>
    </g>
</symbol></svg>