<?xml version="1.0" standalone="no"?>
<!DOCTYPE svg PUBLIC "-//W3C//DTD SVG 1.1//EN" "http://www.w3.org/Graphics/SVG/1.1/DTD/svg11.dtd" >
<svg xmlns="http://www.w3.org/2000/svg">
<defs>
  <font id="minecraft-titling" horiz-adv-x="1000">
    <font-face font-family="minecraft-titling"
      units-per-em="1000" ascent="1000"
      descent="0" />
    <missing-glyph horiz-adv-x="0" />
    <glyph glyph-name="048"
      unicode="&#x30;"
      horiz-adv-x="636.3636363636364" d="M500 909.0909090909092L500 818.1818181818182L590.9090909090909 818.1818181818182L590.9090909090909 181.8181818181819L500 181.8181818181819L500 90.909090909091L136.3636363636364 90.909090909091L136.3636363636364 181.8181818181819L45.4545454545455 181.8181818181819L45.4545454545455 818.1818181818182L136.3636363636364 818.1818181818182L136.3636363636364 909.0909090909092L500 909.0909090909092zM363.6363636363637 727.2727272727273L272.7272727272728 727.2727272727273L272.7272727272728 272.7272727272728L363.6363636363637 272.7272727272728L363.6363636363637 727.2727272727273z" />
    <glyph glyph-name="049"
      unicode="&#x31;"
      horiz-adv-x="590.9090909090909" d="M409.0909090909091 272.7272727272728L409.0909090909091 909.0909090909092L181.8181818181818 909.0909090909092L181.8181818181818 818.1818181818182L45.4545454545455 818.1818181818182L45.4545454545455 636.3636363636364L181.8181818181818 636.3636363636364L181.8181818181818 272.7272727272728L45.4545454545455 272.7272727272728L45.4545454545455 90.909090909091L545.4545454545455 90.909090909091L545.4545454545455 272.7272727272728z" />
    <glyph glyph-name="050"
      unicode="&#x32;"
      horiz-adv-x="636.3636363636364" d="M363.6363636363637 727.2727272727273L363.6363636363637 590.909090909091L136.3636363636364 590.909090909091L136.3636363636364 500L45.4545454545455 500L45.4545454545455 90.909090909091L590.9090909090909 90.909090909091L590.9090909090909 272.7272727272728L272.7272727272728 272.7272727272728L272.7272727272728 409.0909090909091L500 409.0909090909091L500 500L590.9090909090909 500L590.9090909090909 909.0909090909092L45.4545454545455 909.0909090909092L45.4545454545455 727.2727272727273z" />
    <glyph glyph-name="051"
      unicode="&#x33;"
      horiz-adv-x="636.3636363636364" d="M590.9090909090909 545.4545454545455L500 545.4545454545455L500 454.5454545454545L590.9090909090909 454.5454545454545L590.9090909090909 90.909090909091L45.4545454545455 90.909090909091L45.4545454545455 272.7272727272728L363.6363636363637 272.7272727272728L363.6363636363637 409.0909090909091L45.4545454545455 409.0909090909091L45.4545454545455 590.909090909091L363.6363636363637 590.909090909091L363.6363636363637 727.2727272727273L45.4545454545455 727.2727272727273L45.4545454545455 909.0909090909092L590.9090909090909 909.0909090909092z" />
    <glyph glyph-name="052"
      unicode="&#x34;"
      horiz-adv-x="681.8181818181818" d="M363.6363636363637 909.0909090909092L590.9090909090909 909.0909090909092L590.9090909090909 545.4545454545455L681.8181818181818 545.4545454545455L681.8181818181818 363.6363636363637L590.9090909090909 363.6363636363637L590.9090909090909 90.909090909091L363.6363636363637 90.909090909091L363.6363636363637 363.6363636363637L45.4545454545455 363.6363636363637L45.4545454545455 909.0909090909092L272.7272727272728 909.0909090909092L272.7272727272728 545.4545454545455L363.6363636363637 545.4545454545455z" />
    <glyph glyph-name="053"
      unicode="&#x35;"
      horiz-adv-x="636.3636363636364" d="M500 90.909090909091L45.4545454545455 90.909090909091L45.4545454545455 272.7272727272728L363.6363636363637 272.7272727272728L363.6363636363637 409.0909090909091L45.4545454545455 409.0909090909091L45.4545454545455 909.0909090909092L590.9090909090909 909.0909090909092L590.9090909090909 727.2727272727273L272.7272727272728 727.2727272727273L272.7272727272728 590.909090909091L500 590.909090909091L500 500L590.9090909090909 500L590.9090909090909 181.8181818181819L500 181.8181818181819z" />
    <glyph glyph-name="054"
      unicode="&#x36;"
      horiz-adv-x="636.3636363636364" d="M45.4545454545455 90.909090909091L45.4545454545455 909.0909090909092L590.9090909090909 909.0909090909092L590.9090909090909 727.2727272727273L272.7272727272728 727.2727272727273L272.7272727272728 590.9090909090908L590.9090909090909 590.909090909091L590.909090909091 90.909090909091L45.4545454545455 90.909090909091zM272.7272727272728 272.7272727272728L363.6363636363637 272.7272727272728L363.6363636363637 409.0909090909091L272.7272727272728 409.090909090909L272.7272727272728 272.7272727272728z" />
    <glyph glyph-name="055"
      unicode="&#x37;"
      horiz-adv-x="636.3636363636364" d="M590.9090909090909 90.909090909091L363.6363636363637 90.909090909091L363.6363636363637 727.2727272727273L45.4545454545455 727.2727272727273L45.4545454545455 909.0909090909092L590.9090909090909 909.0909090909092z" />
    <glyph glyph-name="056"
      unicode="&#x38;"
      horiz-adv-x="636.3636363636364" d="M590.9090909090909 909.0909090909092L590.9090909090909 590.909090909091L500 590.909090909091L500 497.8909090909091L591.2818181818182 500L590.9090909090909 90.909090909091L45.4545454545455 90.909090909091L45.4545454545455 500L136.3636363636364 500L136.3636363636364 590.909090909091L45.4545454545455 590.909090909091L45.4545454545455 909.0909090909092L590.9090909090909 909.0909090909092zM363.6363636363637 409.0909090909091L272.7272727272728 409.0909090909091L272.7272727272728 272.7272727272728L363.6363636363637 272.7272727272728L363.6363636363637 409.0909090909091zM363.6363636363637 727.2727272727273L272.7272727272728 727.2727272727273L272.7272727272728 590.909090909091L363.6363636363637 590.909090909091L363.6363636363637 727.2727272727273z" />
    <glyph glyph-name="057"
      unicode="&#x39;"
      horiz-adv-x="636.3636363636364" d="M590.9090909090909 909.0909090909092L590.9090909090909 90.909090909091L45.4545454545455 90.909090909091L45.4545454545455 272.7272727272728L363.6363636363637 272.7272727272728L363.6363636363637 409.0909090909091L45.4545454545455 409.0909090909091L45.4545454545455 909.0909090909092L590.9090909090909 909.0909090909092zM363.6363636363637 727.2727272727273L272.7272727272728 727.2727272727273L272.7272727272728 590.909090909091L363.6363636363637 590.909090909091L363.6363636363637 727.2727272727273z" />
    <glyph glyph-name="058"
      unicode="&#x3A;"
      horiz-adv-x="272.72727272727275" d="M45.4545454545455 454.5454545454545L227.2727272727273 454.5454545454545L227.2727272727273 636.3636363636364L45.4545454545455 636.3636363636364zM45.4545454545455 90.909090909091L227.2727272727273 90.909090909091L227.2727272727273 272.7272727272728L45.4545454545455 272.7272727272728z" />
    <glyph glyph-name="059"
      unicode="&#x3B;"
      horiz-adv-x="318.1818181818182" d="M90.9090909090909 454.5454545454545L272.7272727272728 454.5454545454545L272.7272727272728 636.3636363636364L90.9090909090909 636.3636363636364zM272.7272727272728 272.7272727272728L272.7272727272728 90.909090909091L181.8181818181818 90.909090909091L181.8181818181818 0L45.4545454545455 0L45.4545454545455 181.8181818181819L90.9090909090909 181.8181818181819L90.9090909090909 272.7272727272728L272.7272727272728 272.7272727272728z" />
    <glyph glyph-name="060"
      unicode="&#x3C;"
      horiz-adv-x="727.2727272727273" d="M454.5454545454545 909.0909090909092L454.5454545454545 818.1818181818182L318.1818181818182 818.1818181818182L318.1818181818182 727.2727272727273L181.8181818181818 727.2727272727273L181.7727272727273 636.3636363636364L45.4545454545455 636.3636363636364L45.4545454545455 363.6363636363637L181.7727272727273 363.6363636363637L181.8181818181818 272.7272727272728L318.1818181818182 272.7272727272728L318.1818181818182 181.8181818181819L454.5454545454545 181.8181818181819L454.5454545454545 90.909090909091L681.8181818181818 90.909090909091L681.8181818181818 272.7272727272728L545.4545454545455 272.7272727272728L545.4545454545455 363.6363636363637L409.0909090909091 363.6363636363637L409.0909090909091 454.5454545454545L272.6818181818182 454.5454545454545L272.6818181818182 545.4545454545455L409.0909090909091 545.4545454545455L409.0909090909091 636.3636363636364L545.4545454545455 636.3636363636364L545.4545454545455 727.2727272727273L681.8181818181818 727.2727272727273L681.8181818181818 909.0909090909092L454.5454545454545 909.0909090909092z" />
    <glyph glyph-name="061"
      unicode="&#x3D;"
      horiz-adv-x="636.3636363636364" d="M45.4545454545455 727.2727272727273H590.9090909090909V545.4545454545455H45.4545454545455V727.2727272727273zM45.4545454545455 454.5454545454545H590.9090909090909V272.7272727272728H45.4545454545455V454.5454545454545z" />
    <glyph glyph-name="062"
      unicode="&#x3E;"
      horiz-adv-x="727.2727272727273" d="M272.7272727272728 909.0909090909092L272.7272727272728 818.1818181818182L409.0909090909091 818.1818181818182L409.0909090909091 727.2727272727273L545.4545454545455 727.2727272727273L545.5 636.3636363636364L681.8181818181818 636.3636363636364L681.8181818181818 363.6363636363637L545.5 363.6363636363637L545.4545454545455 272.7272727272728L409.0909090909091 272.7272727272728L409.0909090909091 181.8181818181819L272.7272727272728 181.8181818181819L272.7272727272728 90.909090909091L45.4545454545455 90.909090909091L45.4545454545455 272.7272727272728L181.8181818181818 272.7272727272728L181.8181818181818 363.6363636363637L318.1818181818182 363.6363636363637L318.1818181818182 454.5454545454545L454.5909090909091 454.5454545454545L454.5909090909091 545.4545454545455L318.1818181818182 545.4545454545455L318.1818181818182 636.3636363636364L181.8181818181818 636.3636363636364L181.8181818181818 727.2727272727273L45.4545454545455 727.2727272727273L45.4545454545455 909.0909090909092L272.7272727272728 909.0909090909092z" />
    <glyph glyph-name="063"
      unicode="&#x3F;"
      horiz-adv-x="636.3636363636364" d="M227.2727272727273 272.7272727272728H409.0909090909091V90.909090909091H227.2727272727273V272.7272727272728zM590.9090909090909 363.6363636363637L227.2727272727273 363.6363636363637L227.2727272727273 545.4545454545455L363.6363636363637 545.4545454545455L363.6363636363637 727.2727272727273L272.7272727272728 727.2727272727273L272.7272727272728 636.3636363636364L45.4545454545455 636.3636363636364L45.4545454545455 909.0909090909092L590.9090909090909 909.0909090909092L590.9090909090909 363.6363636363637z" />
    <glyph glyph-name="064"
      unicode="&#x40;"
      horiz-adv-x="1000" d="M227.2727272727273 181.8181818181819L772.7272727272727 181.8181818181819L772.7272727272727 0L45.4545454545455 0L45.4545454545455 1000L954.5454545454546 1000L954.5454545454546 272.7272727272728L318.1818181818182 272.7272727272728L318.1818181818182 727.2727272727273L681.8181818181818 727.2727272727273L681.8181818181818 409.0909090909091L772.7272727272727 409.0909090909091L772.7272727272727 818.1818181818182L227.2727272727273 818.1818181818182L227.2727272727273 181.8181818181819zM545.4545454545455 590.909090909091L454.5454545454545 590.909090909091L454.5454545454545 409.0909090909091L545.4545454545455 409.0909090909091L545.4545454545455 590.909090909091z" />
    <glyph glyph-name="065"
      unicode="&#x41;"
      horiz-adv-x="636.3636363636364" d="M590.9090909090909 909.0909090909092L590.9090909090909 90.909090909091L363.6363636363637 90.909090909091L363.6363636363637 363.6363636363637L272.7272727272728 363.6363636363637L272.7272727272728 90.909090909091L45.4545454545455 90.909090909091L45.4545454545455 909.0909090909092L590.9090909090909 909.0909090909092zM363.6363636363637 636.3636363636364L272.7272727272728 636.3636363636364L272.7272727272728 590.909090909091L227.2727272727273 590.909090909091L227.2727272727273 454.5454545454545L272.7272727272728 454.5454545454545L272.7272727272728 500L363.6363636363637 500L363.6363636363637 454.5454545454545L409.0909090909091 454.5454545454545L409.0909090909091 590.909090909091L363.6363636363637 590.909090909091L363.6363636363637 636.3636363636364zM272.7272727272728 727.2727272727273L181.8181818181818 727.2727272727273L181.8181818181818 636.3636363636364L272.7272727272728 636.3636363636364L272.7272727272728 727.2727272727273zM454.5454545454545 727.2727272727273L363.6363636363637 727.2727272727273L363.6363636363637 636.3636363636364L454.5454545454545 636.3636363636364L454.5454545454545 727.2727272727273z" />
    <glyph glyph-name="066"
      unicode="&#x42;"
      horiz-adv-x="636.3636363636364" d="M45.4545454545455 90.909090909091L45.4545454545455 909.0909090909092L590.9090909090909 909.0909090909092L590.9090909090909 590.909090909091L500 590.909090909091L500 497.8909090909091L591.2818181818182 500L590.9090909090909 90.909090909091L45.4545454545455 90.909090909091zM272.7272727272728 590.909090909091L363.6363636363637 590.909090909091L363.6363636363637 727.2727272727273L272.7272727272728 727.2727272727273L272.7272727272728 590.909090909091zM272.7272727272728 272.7272727272728L363.6363636363637 272.7272727272728L363.6363636363637 409.0909090909091L272.7272727272728 409.0909090909091L272.7272727272728 272.7272727272728z" />
    <glyph glyph-name="067"
      unicode="&#x43;"
      horiz-adv-x="636.3636363636364" d="M45.4545454545455 90.909090909091L590.9090909090909 90.909090909091L590.9090909090909 272.7272727272728L272.7272727272728 272.7272727272728L272.7272727272728 727.2727272727273L590.9090909090909 727.2727272727273L590.9090909090909 909.0909090909092L45.4545454545455 909.0909090909092z" />
    <glyph glyph-name="068"
      unicode="&#x44;"
      horiz-adv-x="636.3636363636364" d="M45.4545454545455 90.909090909091L45.4545454545455 909.0909090909092L500 909.0909090909092L500 818.1818181818182L590.9090909090909 818.1818181818182L590.9090909090909 181.8181818181819L500 181.8181818181819L500 90.909090909091L45.4545454545455 90.909090909091zM272.7272727272728 272.7272727272728L363.6363636363637 272.7272727272728L363.6363636363637 727.2727272727273L272.7272727272728 727.2727272727273L272.7272727272728 272.7272727272728z" />
    <glyph glyph-name="069"
      unicode="&#x45;"
      horiz-adv-x="636.3636363636364" d="M45.4545454545455 90.909090909091L590.9090909090909 90.909090909091L590.9090909090909 272.7272727272728L272.7272727272728 272.7272727272728L272.7272727272728 409.0909090909091L590.9090909090909 409.0909090909091L590.9090909090909 590.909090909091L272.7272727272728 590.909090909091L272.7272727272728 727.2727272727273L590.9090909090909 727.2727272727273L590.9090909090909 909.0909090909092L45.4545454545455 909.0909090909092z" />
    <glyph glyph-name="070"
      unicode="&#x46;"
      horiz-adv-x="636.3636363636364" d="M45.4545454545455 90.909090909091L272.7272727272728 90.909090909091L272.7272727272728 409.0909090909091L590.9090909090909 409.0909090909091L590.9090909090909 590.909090909091L272.7272727272728 590.909090909091L272.7272727272728 727.2727272727273L590.9090909090909 727.2727272727273L590.9090909090909 909.0909090909092L45.4545454545455 909.0909090909092z" />
    <glyph glyph-name="071"
      unicode="&#x47;"
      horiz-adv-x="636.3636363636364" d="M45.4545454545455 90.909090909091L590.9090909090909 90.909090909091L590.9090909090909 590.909090909091L363.6363636363637 590.909090909091L363.6363636363637 272.7272727272728L272.7272727272728 272.7272727272728L272.7272727272728 727.2727272727273L590.9090909090909 727.2727272727273L590.9090909090909 909.0909090909092L45.4545454545455 909.0909090909092z" />
    <glyph glyph-name="072"
      unicode="&#x48;"
      horiz-adv-x="636.3636363636364" d="M363.6363636363637 909.0909090909092L363.6363636363637 590.909090909091L272.7272727272728 590.909090909091L272.7272727272728 909.0909090909092L45.4545454545455 909.0909090909092L45.4545454545455 90.909090909091L272.7272727272728 90.909090909091L272.7272727272728 409.0909090909091L363.6363636363637 409.0909090909091L363.6363636363637 90.909090909091L590.9090909090909 90.909090909091L590.9090909090909 909.0909090909092z" />
    <glyph glyph-name="073"
      unicode="&#x49;"
      horiz-adv-x="318.1818181818182" d="M45.4545454545455 90.909090909091L272.7272727272728 90.909090909091L272.7272727272728 909.0909090909092L45.4545454545455 909.0909090909092z" />
    <glyph glyph-name="074"
      unicode="&#x4A;"
      horiz-adv-x="636.3636363636364" d="M590.9090909090909 90.909090909091L45.4545454545455 90.909090909091L45.4545454545455 454.5454545454545L272.7272727272728 454.5454545454545L272.7272727272728 272.7272727272728L363.6363636363637 272.7272727272728L363.6363636363637 909.0909090909092L590.9090909090909 909.0909090909092z" />
    <glyph glyph-name="075"
      unicode="&#x4B;"
      horiz-adv-x="636.3636363636364" d="M272.7272727272728 909.0909090909092L45.4545454545455 909.0909090909092L45.4545454545455 90.909090909091L272.7272727272728 90.909090909091L272.7272727272728 409.0909090909091L363.6363636363637 409.0909090909091L363.6363636363637 90.909090909091L590.9090909090909 90.909090909091L590.9090909090909 454.5454545454545L454.5454545454545 454.5454545454545L454.5454545454545 545.4545454545455L590.9090909090909 545.4545454545455L590.9090909090909 909.0909090909092L363.6363636363637 909.0909090909092L363.6363636363637 590.909090909091L272.7272727272728 590.909090909091z" />
    <glyph glyph-name="076"
      unicode="&#x4C;"
      horiz-adv-x="590.9090909090909" d="M45.4545454545455 90.909090909091L590.9090909090909 90.909090909091L590.9090909090909 272.7272727272728L272.7272727272728 272.7272727272728L272.7272727272728 909.0909090909092L45.4545454545455 909.0909090909092z" />
    <glyph glyph-name="077"
      unicode="&#x4D;"
      horiz-adv-x="909.090909090909" d="M272.7272727272728 772.7272727272727L272.7272727272728 909.0909090909092L45.4545454545455 909.0909090909092L45.4545454545455 90.909090909091L272.7272727272728 90.909090909091L272.7272727272728 454.5454545454545L363.6363636363637 454.5454545454545L363.6363636363637 272.7272727272728L545.4545454545455 272.7272727272728L545.4545454545455 454.5454545454545L636.3636363636364 454.5454545454545L636.3636363636364 90.909090909091L863.6363636363636 90.909090909091L863.6363636363636 909.0909090909092L636.3636363636364 909.0909090909092L636.3636363636364 772.7272727272727L545.4545454545455 772.7272727272727L545.4545454545455 636.3636363636364L363.6363636363637 636.3636363636364L363.6363636363637 772.7272727272727z" />
    <glyph glyph-name="078"
      unicode="&#x4E;"
      horiz-adv-x="727.2727272727273" d="M272.7272727272728 727.2727272727273L272.7272727272728 909.0909090909092L45.4545454545455 909.0909090909092L45.4545454545455 90.909090909091L272.7272727272728 90.909090909091L272.7272727272728 500L363.6363636363637 500L363.6363636363637 363.6363636363637L454.5454545454545 363.6363636363637L454.5454545454545 90.909090909091L681.8181818181818 90.909090909091L681.8181818181818 909.0909090909092L454.5454545454545 909.0909090909092L454.5454545454545 590.909090909091L363.6363636363637 590.909090909091L363.6363636363637 727.2727272727273z" />
    <glyph glyph-name="079"
      unicode="&#x4F;"
      horiz-adv-x="636.3636363636364" d="M45.4545454545455 90.909090909091L45.4545454545455 909.0909090909092L590.9090909090909 909.0909090909092L590.9090909090909 90.909090909091L45.4545454545455 90.909090909091zM272.7272727272728 272.7272727272728L363.6363636363637 272.7272727272728L363.6363636363637 727.2727272727273L272.7272727272728 727.2727272727273L272.7272727272728 272.7272727272728z" />
    <glyph glyph-name="080"
      unicode="&#x50;"
      horiz-adv-x="636.3636363636364" d="M590.9090909090909 909.0909090909092L590.9090909090909 363.6363636363637L272.7272727272728 363.6363636363637L272.7272727272728 90.909090909091L45.4545454545455 90.909090909091L45.4545454545455 909.0909090909092L590.9090909090909 909.0909090909092zM363.6363636363637 727.2727272727273L272.7272727272728 727.2727272727273L272.7272727272728 545.4545454545455L363.6363636363637 545.4545454545455L363.6363636363637 727.2727272727273z" />
    <glyph glyph-name="081"
      unicode="&#x51;"
      horiz-adv-x="681.8181818181818" d="M590.9090909090909 272.7272727272728L681.8181818181818 272.7272727272728L681.8181818181818 90.909090909091L45.4545454545455 90.909090909091L45.4545454545455 909.0909090909092L590.9090909090909 909.0909090909092L590.9090909090909 272.7272727272728zM272.7272727272728 272.7272727272728L363.6363636363637 272.7272727272728L363.6363636363637 727.2727272727273L272.7272727272728 727.2727272727273L272.7272727272728 272.7272727272728z" />
    <glyph glyph-name="082"
      unicode="&#x52;"
      horiz-adv-x="636.3636363636364" d="M590.9090909090909 909.0909090909092L590.9090909090909 545.4545454545455L500 545.4545454545455L500 454.5454545454545L590.9090909090909 454.5454545454545L590.9090909090909 90.909090909091L363.6363636363637 90.909090909091L363.6363636363637 409.0909090909091L272.7272727272728 409.0909090909091L272.7272727272728 90.909090909091L45.4545454545455 90.909090909091L45.4545454545455 909.0909090909092L590.9090909090909 909.0909090909092zM363.6363636363637 727.2727272727273L272.7272727272728 727.2727272727273L272.7272727272728 545.4545454545455L363.6363636363637 545.4545454545455L363.6363636363637 727.2727272727273z" />
    <glyph glyph-name="083"
      unicode="&#x53;"
      horiz-adv-x="636.3636363636364" d="M45.4545454545455 500L136.3636363636364 500L136.3636363636364 409.0909090909091L363.6363636363637 409.0909090909091L363.6363636363637 272.7272727272728L45.4545454545455 272.7272727272728L45.4545454545455 90.909090909091L590.9090909090909 90.909090909091L590.9090909090909 590.909090909091L272.7272727272728 590.909090909091L272.7272727272728 727.2727272727273L590.9090909090909 727.2727272727273L590.9090909090909 909.0909090909092L45.4545454545455 909.0909090909092z" />
    <glyph glyph-name="084"
      unicode="&#x54;"
      horiz-adv-x="590.9090909090909" d="M181.8181818181818 727.2727272727273L181.8181818181818 90.909090909091L409.0909090909091 90.909090909091L409.0909090909091 727.2727272727273L590.9090909090909 727.2727272727273L590.9090909090909 909.0909090909092L0 909.0909090909092L0 727.2727272727273z" />
    <glyph glyph-name="085"
      unicode="&#x55;"
      horiz-adv-x="636.3636363636364" d="M272.7272727272728 909.0909090909092L272.7272727272728 272.7272727272728L363.6363636363637 272.7272727272728L363.6363636363637 909.0909090909092L590.9090909090909 909.0909090909092L590.9090909090909 90.909090909091L45.4545454545455 90.909090909091L45.4545454545455 909.0909090909092z" />
    <glyph glyph-name="086"
      unicode="&#x56;"
      horiz-adv-x="636.3636363636364" d="M45.4545454545455 363.6363636363637L45.4545454545455 909.0909090909092L272.7272727272728 909.0909090909092L272.7272727272728 500L363.6363636363637 500L363.6363636363637 909.0909090909092L590.9090909090909 909.0909090909092L590.9090909090909 363.6363636363637L500 363.6363636363637L500 227.2727272727273L409.0909090909091 227.2727272727273L409.0909090909091 90.909090909091L227.2727272727273 90.909090909091L227.2727272727273 227.2727272727273L136.3636363636364 227.2727272727273L136.3636363636364 363.6363636363637z" />
    <glyph glyph-name="087"
      unicode="&#x57;"
      horiz-adv-x="909.090909090909" d="M272.7272727272728 909.0909090909092L272.7272727272728 500L363.6363636363637 500L363.6363636363637 681.8181818181818L545.4545454545455 681.8181818181818L545.4545454545455 500L636.3636363636364 500L636.3636363636364 909.0909090909092L863.6363636363636 909.0909090909092L863.6363636363636 227.2727272727273L772.7272727272727 227.2727272727273L772.7272727272727 90.909090909091L545.4545454545455 90.909090909091L545.4545454545455 318.1818181818183L363.6363636363637 318.1818181818183L363.6363636363637 90.909090909091L136.3636363636364 90.909090909091L136.3636363636364 227.2727272727273L45.4545454545455 227.2727272727273L45.4545454545455 909.0909090909092z" />
    <glyph glyph-name="088"
      unicode="&#x58;"
      horiz-adv-x="636.3636363636364" d="M45.4545454545455 545.4545454545455L181.8181818181818 545.4545454545455L181.8181818181818 454.5454545454545L45.4545454545455 454.5454545454545L45.4545454545455 90.909090909091L272.7272727272728 90.909090909091L272.7272727272728 409.0909090909091L363.6363636363637 409.0909090909091L363.6363636363637 90.909090909091L590.9090909090909 90.909090909091L590.9090909090909 454.5454545454545L454.5454545454545 454.5454545454545L454.5454545454545 545.4545454545455L590.9090909090909 545.4545454545455L590.9090909090909 909.0909090909092L363.6363636363637 909.0909090909092L363.6363636363637 590.909090909091L272.7272727272728 590.909090909091L272.7272727272728 909.0909090909092L45.4545454545455 909.0909090909092z" />
    <glyph glyph-name="089"
      unicode="&#x59;"
      horiz-adv-x="681.8181818181818" d="M45.4545454545455 500L45.4545454545455 909.0909090909092L272.7272727272728 909.0909090909092L272.7272727272728 590.909090909091L409.0909090909091 590.909090909091L409.0909090909091 909.0909090909092L636.3636363636364 909.0909090909092L636.3636363636364 500L545.4545454545455 500L545.4545454545455 409.0909090909091L454.5454545454545 409.0909090909091L454.5454545454545 90.909090909091L227.2727272727273 90.909090909091L227.2727272727273 409.0909090909091L136.3636363636364 409.0909090909091L136.3636363636364 500z" />
    <glyph glyph-name="090"
      unicode="&#x5A;"
      horiz-adv-x="636.3636363636364" d="M363.6363636363637 727.2727272727273L363.6363636363637 636.3636363636364L272.7272727272728 636.3636363636364L272.7272727272728 545.4545454545455L181.8181818181818 545.4545454545455L181.8181818181818 409.0909090909091L45.4545454545455 409.0909090909091L45.4545454545455 90.909090909091L590.9090909090909 90.909090909091L590.9090909090909 272.7272727272728L272.7272727272728 272.7272727272728L272.7272727272728 363.6363636363637L363.6363636363637 363.6363636363637L363.6363636363637 454.5454545454545L454.5454545454545 454.5454545454545L454.5454545454545 590.909090909091L590.9090909090909 590.909090909091L590.9090909090909 909.0909090909092L45.4545454545455 909.0909090909092L45.4545454545455 727.2727272727273z" />
    <glyph glyph-name="091"
      unicode="&#x5B;"
      horiz-adv-x="500" d="M45.4545454545455 0L45.4545454545455 1000L454.5454545454545 1000L454.5454545454545 818.1818181818182L272.7272727272728 818.1818181818182L272.7272727272728 181.8181818181819L454.5454545454545 181.8181818181819L454.5454545454545 0L45.4545454545455 0z" />
    <glyph glyph-name="092"
      unicode="&#x5C;"
      horiz-adv-x="636.3636363636364" d="M45.4545454545455 1000H227.2727272727273V681.8181818181818H45.4545454545455V1000zM409.0909090909091 318.1818181818183H590.9090909090909V0H409.0909090909091V318.1818181818183zM227.2727272727273 681.8181818181818H409.0909090909091V318.1818181818183H227.2727272727273V681.8181818181818z" />
    <glyph glyph-name="093"
      unicode="&#x5D;"
      horiz-adv-x="500" d="M454.5454545454545 0L454.5454545454545 1000L45.4545454545455 1000L45.4545454545455 818.1818181818182L227.2727272727273 818.1818181818182L227.2727272727273 181.8181818181819L45.4545454545455 181.8181818181819L45.4545454545455 0L454.5454545454545 0z" />
    <glyph glyph-name="094"
      unicode="&#x5E;"
      horiz-adv-x="454.5454545454545" d="M181.8181818181818 636.3636363636364L45.4545454545455 636.3636363636364L45.4545454545455 863.6363636363636L136.3636363636364 863.6363636363636L136.3636363636364 1000L318.1818181818182 1000L318.1818181818182 863.6363636363636L409.0909090909091 863.6363636363636L409.0909090909091 636.3636363636364L272.7272727272728 636.3636363636364L272.7272727272728 772.7272727272727L181.8181818181818 772.7272727272727L181.8181818181818 636.3636363636364z" />
    <glyph glyph-name="095"
      unicode="&#x5F;"
      horiz-adv-x="636.3636363636364" d="M45.4545454545455 0L590.9090909090909 0L590.9090909090909 136.3636363636364L45.4545454545455 136.3636363636364z" />
    <glyph glyph-name="096"
      unicode="&#x60;"
      horiz-adv-x="363.6363636363636" d="M136.3636363636364 1000L136.3636363636364 954.5454545454546L227.2727272727273 954.5454545454546L227.2727272727273 909.0909090909092L318.1818181818182 909.0909090909092L318.1818181818182 772.7272727272727L227.2727272727273 772.7272727272727L227.2727272727273 818.1818181818182L136.3636363636364 818.1818181818182L136.3636363636364 863.6363636363636L45.4545454545455 863.6363636363636L45.4545454545455 1000L136.3636363636364 1000z" />
    <glyph glyph-name="097"
      unicode="&#x61;"
      horiz-adv-x="636.3636363636364" d="M590.9090909090909 909.0909090909092L590.9090909090909 90.909090909091L363.6363636363637 90.909090909091L363.6363636363637 363.6363636363637L272.7272727272728 363.6363636363637L272.7272727272728 90.909090909091L45.4545454545455 90.909090909091L45.4545454545455 909.0909090909092L590.9090909090909 909.0909090909092zM363.6363636363637 727.2727272727273L272.7272727272728 727.2727272727273L272.7272727272728 545.4545454545455L363.6363636363637 545.4545454545455L363.6363636363637 727.2727272727273z" />
    <glyph glyph-name="098"
      unicode="&#x62;"
      horiz-adv-x="636.3636363636364" d="M45.4545454545455 90.909090909091L45.4545454545455 909.0909090909092L590.9090909090909 909.0909090909092L590.9090909090909 590.909090909091L500 590.909090909091L500 497.8909090909091L591.2818181818182 500L590.9090909090909 90.909090909091L45.4545454545455 90.909090909091zM272.7272727272728 590.909090909091L363.6363636363637 590.909090909091L363.6363636363637 727.2727272727273L272.7272727272728 727.2727272727273L272.7272727272728 590.909090909091zM272.7272727272728 272.7272727272728L363.6363636363637 272.7272727272728L363.6363636363637 409.0909090909091L272.7272727272728 409.0909090909091L272.7272727272728 272.7272727272728z" />
    <glyph glyph-name="099"
      unicode="&#x63;"
      horiz-adv-x="636.3636363636364" d="M45.4545454545455 90.909090909091L590.9090909090909 90.909090909091L590.9090909090909 272.7272727272728L272.7272727272728 272.7272727272728L272.7272727272728 727.2727272727273L590.9090909090909 727.2727272727273L590.9090909090909 909.0909090909092L45.4545454545455 909.0909090909092z" />
    <glyph glyph-name="100"
      unicode="&#x64;"
      horiz-adv-x="636.3636363636364" d="M45.4545454545455 90.909090909091L45.4545454545455 909.0909090909092L500 909.0909090909092L500 818.1818181818182L590.9090909090909 818.1818181818182L590.9090909090909 181.8181818181819L500 181.8181818181819L500 90.909090909091L45.4545454545455 90.909090909091zM272.7272727272728 272.7272727272728L363.6363636363637 272.7272727272728L363.6363636363637 727.2727272727273L272.7272727272728 727.2727272727273L272.7272727272728 272.7272727272728z" />
    <glyph glyph-name="101"
      unicode="&#x65;"
      horiz-adv-x="636.3636363636364" d="M45.4545454545455 90.909090909091L590.9090909090909 90.909090909091L590.9090909090909 272.7272727272728L272.7272727272728 272.7272727272728L272.7272727272728 409.0909090909091L590.9090909090909 409.0909090909091L590.9090909090909 590.909090909091L272.7272727272728 590.909090909091L272.7272727272728 727.2727272727273L590.9090909090909 727.2727272727273L590.9090909090909 909.0909090909092L45.4545454545455 909.0909090909092z" />
    <glyph glyph-name="102"
      unicode="&#x66;"
      horiz-adv-x="636.3636363636364" d="M45.4545454545455 90.909090909091L272.7272727272728 90.909090909091L272.7272727272728 409.0909090909091L590.9090909090909 409.0909090909091L590.9090909090909 590.909090909091L272.7272727272728 590.909090909091L272.7272727272728 727.2727272727273L590.9090909090909 727.2727272727273L590.9090909090909 909.0909090909092L45.4545454545455 909.0909090909092z" />
    <glyph glyph-name="103"
      unicode="&#x67;"
      horiz-adv-x="636.3636363636364" d="M45.4545454545455 90.909090909091L590.9090909090909 90.909090909091L590.9090909090909 590.909090909091L363.6363636363637 590.909090909091L363.6363636363637 272.7272727272728L272.7272727272728 272.7272727272728L272.7272727272728 727.2727272727273L590.9090909090909 727.2727272727273L590.9090909090909 909.0909090909092L45.4545454545455 909.0909090909092z" />
    <glyph glyph-name="104"
      unicode="&#x68;"
      horiz-adv-x="636.3636363636364" d="M363.6363636363637 909.0909090909092L363.6363636363637 590.909090909091L272.7272727272728 590.909090909091L272.7272727272728 909.0909090909092L45.4545454545455 909.0909090909092L45.4545454545455 90.909090909091L272.7272727272728 90.909090909091L272.7272727272728 409.0909090909091L363.6363636363637 409.0909090909091L363.6363636363637 90.909090909091L590.9090909090909 90.909090909091L590.9090909090909 909.0909090909092z" />
    <glyph glyph-name="105"
      unicode="&#x69;"
      horiz-adv-x="318.1818181818182" d="M45.4545454545455 90.909090909091L272.7272727272728 90.909090909091L272.7272727272728 909.0909090909092L45.4545454545455 909.0909090909092z" />
    <glyph glyph-name="106"
      unicode="&#x6A;"
      horiz-adv-x="636.3636363636364" d="M590.9090909090909 90.909090909091L45.4545454545455 90.909090909091L45.4545454545455 454.5454545454545L272.7272727272728 454.5454545454545L272.7272727272728 272.7272727272728L363.6363636363637 272.7272727272728L363.6363636363637 909.0909090909092L590.9090909090909 909.0909090909092z" />
    <glyph glyph-name="107"
      unicode="&#x6B;"
      horiz-adv-x="636.3636363636364" d="M272.7272727272728 909.0909090909092L45.4545454545455 909.0909090909092L45.4545454545455 90.909090909091L272.7272727272728 90.909090909091L272.7272727272728 409.0909090909091L363.6363636363637 409.0909090909091L363.6363636363637 90.909090909091L590.9090909090909 90.909090909091L590.9090909090909 454.5454545454545L454.5454545454545 454.5454545454545L454.5454545454545 545.4545454545455L590.9090909090909 545.4545454545455L590.9090909090909 909.0909090909092L363.6363636363637 909.0909090909092L363.6363636363637 590.909090909091L272.7272727272728 590.909090909091z" />
    <glyph glyph-name="108"
      unicode="&#x6C;"
      horiz-adv-x="590.9090909090909" d="M45.4545454545455 90.909090909091L590.9090909090909 90.909090909091L590.9090909090909 272.7272727272728L272.7272727272728 272.7272727272728L272.7272727272728 909.0909090909092L45.4545454545455 909.0909090909092z" />
    <glyph glyph-name="109"
      unicode="&#x6D;"
      horiz-adv-x="909.090909090909" d="M272.7272727272728 772.7272727272727L272.7272727272728 909.0909090909092L45.4545454545455 909.0909090909092L45.4545454545455 90.909090909091L272.7272727272728 90.909090909091L272.7272727272728 454.5454545454545L363.6363636363637 454.5454545454545L363.6363636363637 272.7272727272728L545.4545454545455 272.7272727272728L545.4545454545455 454.5454545454545L636.3636363636364 454.5454545454545L636.3636363636364 90.909090909091L863.6363636363636 90.909090909091L863.6363636363636 909.0909090909092L636.3636363636364 909.0909090909092L636.3636363636364 772.7272727272727L545.4545454545455 772.7272727272727L545.4545454545455 636.3636363636364L363.6363636363637 636.3636363636364L363.6363636363637 772.7272727272727z" />
    <glyph glyph-name="110"
      unicode="&#x6E;"
      horiz-adv-x="727.2727272727273" d="M272.7272727272728 727.2727272727273L272.7272727272728 909.0909090909092L45.4545454545455 909.0909090909092L45.4545454545455 90.909090909091L272.7272727272728 90.909090909091L272.7272727272728 500L363.6363636363637 500L363.6363636363637 363.6363636363637L454.5454545454545 363.6363636363637L454.5454545454545 90.909090909091L681.8181818181818 90.909090909091L681.8181818181818 909.0909090909092L454.5454545454545 909.0909090909092L454.5454545454545 590.909090909091L363.6363636363637 590.909090909091L363.6363636363637 727.2727272727273z" />
    <glyph glyph-name="111"
      unicode="&#x6F;"
      horiz-adv-x="636.3636363636364" d="M45.4545454545455 90.909090909091L45.4545454545455 909.0909090909092L590.9090909090909 909.0909090909092L590.9090909090909 90.909090909091L45.4545454545455 90.909090909091zM272.7272727272728 272.7272727272728L363.6363636363637 272.7272727272728L363.6363636363637 727.2727272727273L272.7272727272728 727.2727272727273L272.7272727272728 272.7272727272728z" />
    <glyph glyph-name="112"
      unicode="&#x70;"
      horiz-adv-x="636.3636363636364" d="M590.9090909090909 909.0909090909092L590.9090909090909 363.6363636363637L272.7272727272728 363.6363636363637L272.7272727272728 90.909090909091L45.4545454545455 90.909090909091L45.4545454545455 909.0909090909092L590.9090909090909 909.0909090909092zM363.6363636363637 727.2727272727273L272.7272727272728 727.2727272727273L272.7272727272728 545.4545454545455L363.6363636363637 545.4545454545455L363.6363636363637 727.2727272727273z" />
    <glyph glyph-name="113"
      unicode="&#x71;"
      horiz-adv-x="681.8181818181818" d="M590.9090909090909 272.7272727272728L681.8181818181818 272.7272727272728L681.8181818181818 90.909090909091L45.4545454545455 90.909090909091L45.4545454545455 909.0909090909092L590.9090909090909 909.0909090909092L590.9090909090909 272.7272727272728zM272.7272727272728 272.7272727272728L363.6363636363637 272.7272727272728L363.6363636363637 727.2727272727273L272.7272727272728 727.2727272727273L272.7272727272728 272.7272727272728z" />
    <glyph glyph-name="114"
      unicode="&#x72;"
      horiz-adv-x="636.3636363636364" d="M590.9090909090909 909.0909090909092L590.9090909090909 545.4545454545455L500 545.4545454545455L500 454.5454545454545L590.9090909090909 454.5454545454545L590.9090909090909 90.909090909091L363.6363636363637 90.909090909091L363.6363636363637 409.0909090909091L272.7272727272728 409.0909090909091L272.7272727272728 90.909090909091L45.4545454545455 90.909090909091L45.4545454545455 909.0909090909092L590.9090909090909 909.0909090909092zM363.6363636363637 727.2727272727273L272.7272727272728 727.2727272727273L272.7272727272728 545.4545454545455L363.6363636363637 545.4545454545455L363.6363636363637 727.2727272727273z" />
    <glyph glyph-name="115"
      unicode="&#x73;"
      horiz-adv-x="636.3636363636364" d="M45.4545454545455 500L136.3636363636364 500L136.3636363636364 409.0909090909091L363.6363636363637 409.0909090909091L363.6363636363637 272.7272727272728L45.4545454545455 272.7272727272728L45.4545454545455 90.909090909091L590.9090909090909 90.909090909091L590.9090909090909 590.909090909091L272.7272727272728 590.909090909091L272.7272727272728 727.2727272727273L590.9090909090909 727.2727272727273L590.9090909090909 909.0909090909092L45.4545454545455 909.0909090909092z" />
    <glyph glyph-name="116"
      unicode="&#x74;"
      horiz-adv-x="590.9090909090909" d="M181.8181818181818 727.2727272727273L181.8181818181818 90.909090909091L409.0909090909091 90.909090909091L409.0909090909091 727.2727272727273L590.9090909090909 727.2727272727273L590.9090909090909 909.0909090909092L0 909.0909090909092L0 727.2727272727273z" />
    <glyph glyph-name="117"
      unicode="&#x75;"
      horiz-adv-x="636.3636363636364" d="M272.7272727272728 909.0909090909092L272.7272727272728 272.7272727272728L363.6363636363637 272.7272727272728L363.6363636363637 909.0909090909092L590.9090909090909 909.0909090909092L590.9090909090909 90.909090909091L45.4545454545455 90.909090909091L45.4545454545455 909.0909090909092z" />
    <glyph glyph-name="118"
      unicode="&#x76;"
      horiz-adv-x="636.3636363636364" d="M45.4545454545455 363.6363636363637L45.4545454545455 909.0909090909092L272.7272727272728 909.0909090909092L272.7272727272728 500L363.6363636363637 500L363.6363636363637 909.0909090909092L590.9090909090909 909.0909090909092L590.9090909090909 363.6363636363637L500 363.6363636363637L500 227.2727272727273L409.0909090909091 227.2727272727273L409.0909090909091 90.909090909091L227.2727272727273 90.909090909091L227.2727272727273 227.2727272727273L136.3636363636364 227.2727272727273L136.3636363636364 363.6363636363637z" />
    <glyph glyph-name="119"
      unicode="&#x77;"
      horiz-adv-x="909.090909090909" d="M272.7272727272728 909.0909090909092L272.7272727272728 500L363.6363636363637 500L363.6363636363637 681.8181818181818L545.4545454545455 681.8181818181818L545.4545454545455 500L636.3636363636364 500L636.3636363636364 909.0909090909092L863.6363636363636 909.0909090909092L863.6363636363636 227.2727272727273L772.7272727272727 227.2727272727273L772.7272727272727 90.909090909091L545.4545454545455 90.909090909091L545.4545454545455 318.1818181818183L363.6363636363637 318.1818181818183L363.6363636363637 90.909090909091L136.3636363636364 90.909090909091L136.3636363636364 227.2727272727273L45.4545454545455 227.2727272727273L45.4545454545455 909.0909090909092z" />
    <glyph glyph-name="120"
      unicode="&#x78;"
      horiz-adv-x="636.3636363636364" d="M45.4545454545455 545.4545454545455L181.8181818181818 545.4545454545455L181.8181818181818 454.5454545454545L45.4545454545455 454.5454545454545L45.4545454545455 90.909090909091L272.7272727272728 90.909090909091L272.7272727272728 409.0909090909091L363.6363636363637 409.0909090909091L363.6363636363637 90.909090909091L590.9090909090909 90.909090909091L590.9090909090909 454.5454545454545L454.5454545454545 454.5454545454545L454.5454545454545 545.4545454545455L590.9090909090909 545.4545454545455L590.9090909090909 909.0909090909092L363.6363636363637 909.0909090909092L363.6363636363637 590.909090909091L272.7272727272728 590.909090909091L272.7272727272728 909.0909090909092L45.4545454545455 909.0909090909092z" />
    <glyph glyph-name="121"
      unicode="&#x79;"
      horiz-adv-x="681.8181818181818" d="M45.4545454545455 500L45.4545454545455 909.0909090909092L272.7272727272728 909.0909090909092L272.7272727272728 590.909090909091L409.0909090909091 590.909090909091L409.0909090909091 909.0909090909092L636.3636363636364 909.0909090909092L636.3636363636364 500L545.4545454545455 500L545.4545454545455 409.0909090909091L454.5454545454545 409.0909090909091L454.5454545454545 90.909090909091L227.2727272727273 90.909090909091L227.2727272727273 409.0909090909091L136.3636363636364 409.0909090909091L136.3636363636364 500z" />
    <glyph glyph-name="122"
      unicode="&#x7A;"
      horiz-adv-x="636.3636363636364" d="M363.6363636363637 727.2727272727273L363.6363636363637 636.3636363636364L272.7272727272728 636.3636363636364L272.7272727272728 545.4545454545455L181.8181818181818 545.4545454545455L181.8181818181818 409.0909090909091L45.4545454545455 409.0909090909091L45.4545454545455 90.909090909091L590.9090909090909 90.909090909091L590.9090909090909 272.7272727272728L272.7272727272728 272.7272727272728L272.7272727272728 363.6363636363637L363.6363636363637 363.6363636363637L363.6363636363637 454.5454545454545L454.5454545454545 454.5454545454545L454.5454545454545 590.909090909091L590.9090909090909 590.909090909091L590.9090909090909 909.0909090909092L45.4545454545455 909.0909090909092L45.4545454545455 727.2727272727273z" />
  </font>
</defs>
</svg>
