<svg xmlns="http://www.w3.org/2000/svg" xmlns:xlink="http://www.w3.org/1999/xlink" width="0" height="0" style="display:none;"><symbol viewBox="0 0 12 22" id="minecraft-text-048">
    <title>048</title>
    <g id="048" stroke="none" stroke-width="1" fill="none" fill-rule="evenodd">
        <polygon id="Path" fill="#000000" fill-rule="nonzero" points="3 18 3 16 9 16 9 18"></polygon>
        <polygon id="Path" fill="#000000" fill-rule="nonzero" points="5 12 5 10 7 10 7 12"></polygon>
        <polygon id="Path" fill="#000000" fill-rule="nonzero" points="1 16 1 6 3 6 3 12 5 12 5 14 3 14 3 16"></polygon>
        <polygon id="Path" fill="#000000" fill-rule="nonzero" points="9 16 9 10 7 10 7 8 9 8 9 6 11 6 11 16"></polygon>
        <polygon id="Path" fill="#000000" fill-rule="nonzero" points="3 6 3 4 9 4 9 6"></polygon>
    </g>
</symbol><symbol viewBox="0 0 12 22" id="minecraft-text-049">
    <title>049</title>
    <g id="049" stroke="none" stroke-width="1" fill="none" fill-rule="evenodd">
        <polygon id="Path" fill="#000000" fill-rule="nonzero" points="1 18 1 16 5 16 5 8 3 8 3 6 5 6 5 4 7 4 7 16 11 16 11 18"></polygon>
    </g>
</symbol><symbol viewBox="0 0 12 22" id="minecraft-text-050">
    <title>050</title>
    <g id="050" stroke="none" stroke-width="1" fill="none" fill-rule="evenodd">
        <polygon id="Path" fill="#000000" fill-rule="nonzero" points="1 18 1 14 3 14 3 16 11 16 11 18"></polygon>
        <polygon id="Path" fill="#000000" fill-rule="nonzero" points="3 14 3 12 5 12 5 14"></polygon>
        <polygon id="Path" fill="#000000" fill-rule="nonzero" points="5 12 5 10 9 10 9 12"></polygon>
        <polygon id="Path" fill="#000000" fill-rule="nonzero" points="1 8 1 6 3 6 3 8"></polygon>
        <polygon id="Path" fill="#000000" fill-rule="nonzero" points="9 10 9 6 11 6 11 10"></polygon>
        <polygon id="Path" fill="#000000" fill-rule="nonzero" points="3 6 3 4 9 4 9 6"></polygon>
    </g>
</symbol><symbol viewBox="0 0 12 22" id="minecraft-text-051">
    <title>051</title>
    <g id="051" stroke="none" stroke-width="1" fill="none" fill-rule="evenodd">
        <polygon id="Path" fill="#000000" fill-rule="nonzero" points="3 18 3 16 9 16 9 18"></polygon>
        <polygon id="Path" fill="#000000" fill-rule="nonzero" points="1 16 1 14 3 14 3 16"></polygon>
        <polygon id="Path" fill="#000000" fill-rule="nonzero" points="9 16 9 12 11 12 11 16"></polygon>
        <polygon id="Path" fill="#000000" fill-rule="nonzero" points="5 12 5 10 9 10 9 12"></polygon>
        <polygon id="Path" fill="#000000" fill-rule="nonzero" points="1 8 1 6 3 6 3 8"></polygon>
        <polygon id="Path" fill="#000000" fill-rule="nonzero" points="9 10 9 6 11 6 11 10"></polygon>
        <polygon id="Path" fill="#000000" fill-rule="nonzero" points="3 6 3 4 9 4 9 6"></polygon>
    </g>
</symbol><symbol viewBox="0 0 12 22" id="minecraft-text-052">
    <title>052</title>
    <g id="052" stroke="none" stroke-width="1" fill="none" fill-rule="evenodd">
        <polygon id="Path" fill="#000000" fill-rule="nonzero" points="3 10 3 8 5 8 5 10"></polygon>
        <polygon id="Path" fill="#000000" fill-rule="nonzero" points="5 8 5 6 7 6 7 8"></polygon>
        <polygon id="Path" fill="#000000" fill-rule="nonzero" points="9 18 9 14 1 14 1 10 3 10 3 12 9 12 9 6 7 6 7 4 11 4 11 18"></polygon>
    </g>
</symbol><symbol viewBox="0 0 12 22" id="minecraft-text-053">
    <title>053</title>
    <g id="053" stroke="none" stroke-width="1" fill="none" fill-rule="evenodd">
        <polygon id="Path" fill="#000000" fill-rule="nonzero" points="3 18 3 16 9 16 9 18"></polygon>
        <polygon id="Path" fill="#000000" fill-rule="nonzero" points="1 16 1 14 3 14 3 16"></polygon>
        <polygon id="Path" fill="#000000" fill-rule="nonzero" points="9 16 9 10 11 10 11 16"></polygon>
        <polygon id="Path" fill="#000000" fill-rule="nonzero" points="1 10 1 4 11 4 11 6 3 6 3 8 9 8 9 10"></polygon>
    </g>
</symbol><symbol viewBox="0 0 12 22" id="minecraft-text-054">
    <title>054</title>
    <g id="054" stroke="none" stroke-width="1" fill="none" fill-rule="evenodd">
        <polygon id="Path" fill="#000000" fill-rule="nonzero" points="3 18 3 16 9 16 9 18"></polygon>
        <polygon id="Path" fill="#000000" fill-rule="nonzero" points="9 16 9 12 11 12 11 16"></polygon>
        <polygon id="Path" fill="#000000" fill-rule="nonzero" points="1 16 1 8 3 8 3 10 9 10 9 12 3 12 3 16"></polygon>
        <polygon id="Path" fill="#000000" fill-rule="nonzero" points="3 8 3 6 5 6 5 8"></polygon>
        <polygon id="Path" fill="#000000" fill-rule="nonzero" points="5 6 5 4 9 4 9 6"></polygon>
    </g>
</symbol><symbol viewBox="0 0 12 22" id="minecraft-text-055">
    <title>055</title>
    <g id="055" stroke="none" stroke-width="1" fill="none" fill-rule="evenodd">
        <polygon id="Path" fill="#000000" fill-rule="nonzero" points="5 18 5 12 7 12 7 18"></polygon>
        <polygon id="Path" fill="#000000" fill-rule="nonzero" points="7 12 7 10 9 10 9 12"></polygon>
        <polygon id="Path" fill="#000000" fill-rule="nonzero" points="9 10 9 6 3 6 3 8 1 8 1 4 11 4 11 10"></polygon>
    </g>
</symbol><symbol viewBox="0 0 12 22" id="minecraft-text-056">
    <title>056</title>
    <g id="056" stroke="none" stroke-width="1" fill="none" fill-rule="evenodd">
        <polygon id="Path" fill="#000000" fill-rule="nonzero" points="3 18 3 16 9 16 9 18"></polygon>
        <polygon id="Path" fill="#000000" fill-rule="nonzero" points="1 16 1 12 3 12 3 16"></polygon>
        <polygon id="Path" fill="#000000" fill-rule="nonzero" points="9 16 9 12 11 12 11 16"></polygon>
        <polygon id="Path" fill="#000000" fill-rule="nonzero" points="3 12 3 10 9 10 9 12"></polygon>
        <polygon id="Path" fill="#000000" fill-rule="nonzero" points="1 10 1 6 3 6 3 10"></polygon>
        <polygon id="Path" fill="#000000" fill-rule="nonzero" points="9 10 9 6 11 6 11 10"></polygon>
        <polygon id="Path" fill="#000000" fill-rule="nonzero" points="3 6 3 4 9 4 9 6"></polygon>
    </g>
</symbol><symbol viewBox="0 0 12 22" id="minecraft-text-057">
    <title>057</title>
    <g id="057" stroke="none" stroke-width="1" fill="none" fill-rule="evenodd">
        <polygon id="Path" fill="#000000" fill-rule="nonzero" points="3 18 3 16 7 16 7 18"></polygon>
        <polygon id="Path" fill="#000000" fill-rule="nonzero" points="7 16 7 14 9 14 9 16"></polygon>
        <polygon id="Path" fill="#000000" fill-rule="nonzero" points="1 10 1 6 3 6 3 10"></polygon>
        <polygon id="Path" fill="#000000" fill-rule="nonzero" points="9 14 9 12 3 12 3 10 9 10 9 6 11 6 11 14"></polygon>
        <polygon id="Path" fill="#000000" fill-rule="nonzero" points="3 6 3 4 9 4 9 6"></polygon>
    </g>
</symbol><symbol viewBox="0 0 4 22" id="minecraft-text-058">
    <title>058</title>
    <g id="058" stroke="none" stroke-width="1" fill="none" fill-rule="evenodd">
        <polygon id="Path" fill="#000000" fill-rule="nonzero" points="1 18 1 14 3 14 3 18"></polygon>
        <polygon id="Path" fill="#000000" fill-rule="nonzero" points="1 10 1 6 3 6 3 10"></polygon>
    </g>
</symbol><symbol viewBox="0 0 4 22" id="minecraft-text-059">
    <title>059</title>
    <g id="059" stroke="none" stroke-width="1" fill="none" fill-rule="evenodd">
        <polygon id="Path" fill="#000000" fill-rule="nonzero" points="1 20 1 14 3 14 3 20"></polygon>
        <polygon id="Path" fill="#000000" fill-rule="nonzero" points="1 10 1 6 3 6 3 10"></polygon>
    </g>
</symbol><symbol viewBox="0 0 10 22" id="minecraft-text-060">
    <title>060</title>
    <g id="060" stroke="none" stroke-width="1" fill="none" fill-rule="evenodd">
        <polygon id="Path" fill="#000000" fill-rule="nonzero" points="7 18 7 16 9 16 9 18"></polygon>
        <polygon id="Path" fill="#000000" fill-rule="nonzero" points="5 16 5 14 7 14 7 16"></polygon>
        <polygon id="Path" fill="#000000" fill-rule="nonzero" points="3 14 3 12 5 12 5 14"></polygon>
        <polygon id="Path" fill="#000000" fill-rule="nonzero" points="1 12 1 10 3 10 3 12"></polygon>
        <polygon id="Path" fill="#000000" fill-rule="nonzero" points="3 10 3 8 5 8 5 10"></polygon>
        <polygon id="Path" fill="#000000" fill-rule="nonzero" points="5 8 5 6 7 6 7 8"></polygon>
        <polygon id="Path" fill="#000000" fill-rule="nonzero" points="7 6 7 4 9 4 9 6"></polygon>
    </g>
</symbol><symbol viewBox="0 0 12 22" id="minecraft-text-061">
    <title>061</title>
    <g id="061" stroke="none" stroke-width="1" fill="none" fill-rule="evenodd">
        <polygon id="Path" fill="#000000" fill-rule="nonzero" points="1 16 1 14 11 14 11 16"></polygon>
        <polygon id="Path" fill="#000000" fill-rule="nonzero" points="1 10 1 8 11 8 11 10"></polygon>
    </g>
</symbol><symbol viewBox="0 0 10 22" id="minecraft-text-062">
    <title>062</title>
    <g id="062" stroke="none" stroke-width="1" fill="none" fill-rule="evenodd">
        <polygon id="Path" fill="#000000" fill-rule="nonzero" points="1 18 1 16 3 16 3 18"></polygon>
        <polygon id="Path" fill="#000000" fill-rule="nonzero" points="3 16 3 14 5 14 5 16"></polygon>
        <polygon id="Path" fill="#000000" fill-rule="nonzero" points="5 14 5 12 7 12 7 14"></polygon>
        <polygon id="Path" fill="#000000" fill-rule="nonzero" points="7 12 7 10 9 10 9 12"></polygon>
        <polygon id="Path" fill="#000000" fill-rule="nonzero" points="5 10 5 8 7 8 7 10"></polygon>
        <polygon id="Path" fill="#000000" fill-rule="nonzero" points="3 8 3 6 5 6 5 8"></polygon>
        <polygon id="Path" fill="#000000" fill-rule="nonzero" points="1 6 1 4 3 4 3 6"></polygon>
    </g>
</symbol><symbol viewBox="0 0 12 22" id="minecraft-text-063">
    <title>063</title>
    <g id="063" stroke="none" stroke-width="1" fill="none" fill-rule="evenodd">
        <polygon id="Path" fill="#000000" fill-rule="nonzero" points="5 18 5 16 7 16 7 18"></polygon>
        <polygon id="Path" fill="#000000" fill-rule="nonzero" points="5 14 5 12 7 12 7 14"></polygon>
        <polygon id="Path" fill="#000000" fill-rule="nonzero" points="7 12 7 10 9 10 9 12"></polygon>
        <polygon id="Path" fill="#000000" fill-rule="nonzero" points="1 8 1 6 3 6 3 8"></polygon>
        <polygon id="Path" fill="#000000" fill-rule="nonzero" points="9 10 9 6 11 6 11 10"></polygon>
        <polygon id="Path" fill="#000000" fill-rule="nonzero" points="3 6 3 4 9 4 9 6"></polygon>
    </g>
</symbol><symbol viewBox="0 0 14 22" id="minecraft-text-064">
    <title>064</title>
    <g id="064" stroke="none" stroke-width="1" fill="none" fill-rule="evenodd">
        <polygon id="Path" fill="#000000" fill-rule="nonzero" points="3 18 3 16 13 16 13 18"></polygon>
        <polygon id="Path" fill="#000000" fill-rule="nonzero" points="1 16 1 6 3 6 3 16"></polygon>
        <polygon id="Path" fill="#000000" fill-rule="nonzero" points="5 14 5 8 9 8 9 12 11 12 11 6 13 6 13 14"></polygon>
        <polygon id="Path" fill="#000000" fill-rule="nonzero" points="3 6 3 4 11 4 11 6"></polygon>
    </g>
</symbol><symbol viewBox="0 0 12 22" id="minecraft-text-065">
    <title>065</title>
    <g id="065" stroke="none" stroke-width="1" fill="none" fill-rule="evenodd">
        <polygon id="Path" fill="#000000" fill-rule="nonzero" points="1 18 1 6 3 6 3 8 9 8 9 6 11 6 11 18 9 18 9 10 3 10 3 18"></polygon>
        <polygon id="Path" fill="#000000" fill-rule="nonzero" points="3 6 3 4 9 4 9 6"></polygon>
    </g>
</symbol><symbol viewBox="0 0 12 22" id="minecraft-text-066">
    <title>066</title>
    <g id="066" stroke="none" stroke-width="1" fill="none" fill-rule="evenodd">
        <polygon id="Path" fill="#000000" fill-rule="nonzero" points="9 16 9 10 11 10 11 16"></polygon>
        <polygon id="Path" fill="#000000" fill-rule="nonzero" points="9 8 9 6 11 6 11 8"></polygon>
        <polygon id="Path" fill="#000000" fill-rule="nonzero" points="1 18 1 4 9 4 9 6 3 6 3 8 9 8 9 10 3 10 3 16 9 16 9 18"></polygon>
    </g>
</symbol><symbol viewBox="0 0 12 22" id="minecraft-text-067">
    <title>067</title>
    <g id="067" stroke="none" stroke-width="1" fill="none" fill-rule="evenodd">
        <polygon id="Path" fill="#000000" fill-rule="nonzero" points="3 18 3 16 9 16 9 18"></polygon>
        <polygon id="Path" fill="#000000" fill-rule="nonzero" points="9 16 9 14 11 14 11 16"></polygon>
        <polygon id="Path" fill="#000000" fill-rule="nonzero" points="1 16 1 6 3 6 3 16"></polygon>
        <polygon id="Path" fill="#000000" fill-rule="nonzero" points="9 8 9 6 11 6 11 8"></polygon>
        <polygon id="Path" fill="#000000" fill-rule="nonzero" points="3 6 3 4 9 4 9 6"></polygon>
    </g>
</symbol><symbol viewBox="0 0 12 22" id="minecraft-text-068">
    <title>068</title>
    <g id="068" stroke="none" stroke-width="1" fill="none" fill-rule="evenodd">
        <polygon id="Path" fill="#000000" fill-rule="nonzero" points="9 16 9 6 11 6 11 16"></polygon>
        <polygon id="Path" fill="#000000" fill-rule="nonzero" points="1 18 1 4 9 4 9 6 3 6 3 16 9 16 9 18"></polygon>
    </g>
</symbol><symbol viewBox="0 0 12 22" id="minecraft-text-069">
    <title>069</title>
    <g id="069" stroke="none" stroke-width="1" fill="none" fill-rule="evenodd">
        <polygon id="Path" fill="#000000" fill-rule="nonzero" points="1 18 1 4 11 4 11 6 3 6 3 8 7 8 7 10 3 10 3 16 11 16 11 18"></polygon>
    </g>
</symbol><symbol viewBox="0 0 12 22" id="minecraft-text-070">
    <title>070</title>
    <g id="070" stroke="none" stroke-width="1" fill="none" fill-rule="evenodd">
        <polygon id="Path" fill="#000000" fill-rule="nonzero" points="1 18 1 4 11 4 11 6 3 6 3 8 7 8 7 10 3 10 3 18"></polygon>
    </g>
</symbol><symbol viewBox="0 0 12 22" id="minecraft-text-071">
    <title>071</title>
    <g id="071" stroke="none" stroke-width="1" fill="none" fill-rule="evenodd">
        <polygon id="Path" fill="#000000" fill-rule="nonzero" points="3 18 3 16 9 16 9 18"></polygon>
        <polygon id="Path" fill="#000000" fill-rule="nonzero" points="9 16 9 10 5 10 5 8 11 8 11 16"></polygon>
        <polygon id="Path" fill="#000000" fill-rule="nonzero" points="1 16 1 6 3 6 3 16"></polygon>
        <polygon id="Path" fill="#000000" fill-rule="nonzero" points="3 6 3 4 11 4 11 6"></polygon>
    </g>
</symbol><symbol viewBox="0 0 12 22" id="minecraft-text-072">
    <title>072</title>
    <g id="072" stroke="none" stroke-width="1" fill="none" fill-rule="evenodd">
        <polygon id="Path" fill="#000000" fill-rule="nonzero" points="1 18 1 4 3 4 3 8 9 8 9 4 11 4 11 18 9 18 9 10 3 10 3 18"></polygon>
    </g>
</symbol><symbol viewBox="0 0 8 22" id="minecraft-text-073">
    <title>073</title>
    <g id="073" stroke="none" stroke-width="1" fill="none" fill-rule="evenodd">
        <polygon id="Path" fill="#000000" fill-rule="nonzero" points="1 18 1 16 3 16 3 6 1 6 1 4 7 4 7 6 5 6 5 16 7 16 7 18"></polygon>
    </g>
</symbol><symbol viewBox="0 0 11 22" id="minecraft-text-074">
    <title>074</title>
    <g id="074" stroke="none" stroke-width="1" fill="none" fill-rule="evenodd">
        <polygon id="Path" fill="#000000" fill-rule="nonzero" points="2 18 2 16 8 16 8 18"></polygon>
        <polygon id="Path" fill="#000000" fill-rule="nonzero" points="0 16 0 14 2 14 2 16"></polygon>
        <polygon id="Path" fill="#000000" fill-rule="nonzero" points="8 16 8 4 10 4 10 16"></polygon>
    </g>
</symbol><symbol viewBox="0 0 12 22" id="minecraft-text-075">
    <title>075</title>
    <g id="075" stroke="none" stroke-width="1" fill="none" fill-rule="evenodd">
        <polygon id="Path" fill="#000000" fill-rule="nonzero" points="9 18 9 12 11 12 11 18"></polygon>
        <polygon id="Path" fill="#000000" fill-rule="nonzero" points="7 12 7 10 9 10 9 12"></polygon>
        <polygon id="Path" fill="#000000" fill-rule="nonzero" points="7 8 7 6 9 6 9 8"></polygon>
        <polygon id="Path" fill="#000000" fill-rule="nonzero" points="1 18 1 4 3 4 3 8 7 8 7 10 3 10 3 18"></polygon>
        <polygon id="Path" fill="#000000" fill-rule="nonzero" points="9 6 9 4 11 4 11 6"></polygon>
    </g>
</symbol><symbol viewBox="0 0 11 22" id="minecraft-text-076">
    <title>076</title>
    <g id="076" stroke="none" stroke-width="1" fill="none" fill-rule="evenodd">
        <polygon id="Path" fill="#000000" fill-rule="nonzero" points="1 18 1 4 3 4 3 16 11 16 11 18"></polygon>
    </g>
</symbol><symbol viewBox="0 0 12 22" id="minecraft-text-077">
    <title>077</title>
    <g id="077" stroke="none" stroke-width="1" fill="none" fill-rule="evenodd">
        <polygon id="Path" fill="#000000" fill-rule="nonzero" points="5 10 5 8 7 8 7 10"></polygon>
        <polygon id="Path" fill="#000000" fill-rule="nonzero" points="1 18 1 4 3 4 3 6 5 6 5 8 3 8 3 18"></polygon>
        <polygon id="Path" fill="#000000" fill-rule="nonzero" points="9 18 9 8 7 8 7 6 9 6 9 4 11 4 11 18"></polygon>
    </g>
</symbol><symbol viewBox="0 0 12 22" id="minecraft-text-078">
    <title>078</title>
    <g id="078" stroke="none" stroke-width="1" fill="none" fill-rule="evenodd">
        <polygon id="Path" fill="#000000" fill-rule="nonzero" points="5 10 5 8 7 8 7 10"></polygon>
        <polygon id="Path" fill="#000000" fill-rule="nonzero" points="1 18 1 4 3 4 3 6 5 6 5 8 3 8 3 18"></polygon>
        <polygon id="Path" fill="#000000" fill-rule="nonzero" points="9 18 9 12 7 12 7 10 9 10 9 4 11 4 11 18"></polygon>
    </g>
</symbol><symbol viewBox="0 0 12 22" id="minecraft-text-079">
    <title>079</title>
    <g id="079" stroke="none" stroke-width="1" fill="none" fill-rule="evenodd">
        <polygon id="Path" fill="#000000" fill-rule="nonzero" points="3 18 3 16 9 16 9 18"></polygon>
        <polygon id="Path" fill="#000000" fill-rule="nonzero" points="1 16 1 6 3 6 3 16"></polygon>
        <polygon id="Path" fill="#000000" fill-rule="nonzero" points="9 16 9 6 11 6 11 16"></polygon>
        <polygon id="Path" fill="#000000" fill-rule="nonzero" points="3 6 3 4 9 4 9 6"></polygon>
    </g>
</symbol><symbol viewBox="0 0 11 22" id="minecraft-text-080">
    <title>080</title>
    <g id="080" stroke="none" stroke-width="1" fill="none" fill-rule="evenodd">
        <polygon id="Path" fill="#000000" fill-rule="nonzero" points="9 8 9 6 11 6 11 8"></polygon>
        <polygon id="Path" fill="#000000" fill-rule="nonzero" points="1 18 1 4 9 4 9 6 3 6 3 8 9 8 9 10 3 10 3 18"></polygon>
    </g>
</symbol><symbol viewBox="0 0 12 22" id="minecraft-text-081">
    <title>081</title>
    <g id="081" stroke="none" stroke-width="1" fill="none" fill-rule="evenodd">
        <polygon id="Path" fill="#000000" fill-rule="nonzero" points="3 18 3 16 7 16 7 18"></polygon>
        <polygon id="Path" fill="#000000" fill-rule="nonzero" points="9 18 9 16 11 16 11 18"></polygon>
        <polygon id="Path" fill="#000000" fill-rule="nonzero" points="7 16 7 14 9 14 9 16"></polygon>
        <polygon id="Path" fill="#000000" fill-rule="nonzero" points="1 16 1 6 3 6 3 16"></polygon>
        <polygon id="Path" fill="#000000" fill-rule="nonzero" points="9 14 9 6 11 6 11 14"></polygon>
        <polygon id="Path" fill="#000000" fill-rule="nonzero" points="3 6 3 4 9 4 9 6"></polygon>
    </g>
</symbol><symbol viewBox="0 0 12 22" id="minecraft-text-082">
    <title>082</title>
    <g id="082" stroke="none" stroke-width="1" fill="none" fill-rule="evenodd">
        <polygon id="Path" fill="#000000" fill-rule="nonzero" points="9 18 9 10 11 10 11 18"></polygon>
        <polygon id="Path" fill="#000000" fill-rule="nonzero" points="9 8 9 6 11 6 11 8"></polygon>
        <polygon id="Path" fill="#000000" fill-rule="nonzero" points="1 18 1 4 9 4 9 6 3 6 3 8 9 8 9 10 3 10 3 18"></polygon>
    </g>
</symbol><symbol viewBox="0 0 12 22" id="minecraft-text-083">
    <title>083</title>
    <g id="083" stroke="none" stroke-width="1" fill="none" fill-rule="evenodd">
        <polygon id="Path" fill="#000000" fill-rule="nonzero" points="3 18 3 16 9 16 9 18"></polygon>
        <polygon id="Path" fill="#000000" fill-rule="nonzero" points="1 16 1 14 3 14 3 16"></polygon>
        <polygon id="Path" fill="#000000" fill-rule="nonzero" points="9 16 9 10 11 10 11 16"></polygon>
        <polygon id="Path" fill="#000000" fill-rule="nonzero" points="3 10 3 8 9 8 9 10"></polygon>
        <polygon id="Path" fill="#000000" fill-rule="nonzero" points="1 8 1 6 3 6 3 8"></polygon>
        <polygon id="Path" fill="#000000" fill-rule="nonzero" points="3 6 3 4 11 4 11 6"></polygon>
    </g>
</symbol><symbol viewBox="0 0 12 22" id="minecraft-text-084">
    <title>084</title>
    <g id="084" stroke="none" stroke-width="1" fill="none" fill-rule="evenodd">
        <polygon id="Path" fill="#000000" fill-rule="nonzero" points="5 18 5 6 1 6 1 4 11 4 11 6 7 6 7 18"></polygon>
    </g>
</symbol><symbol viewBox="0 0 12 22" id="minecraft-text-085">
    <title>085</title>
    <g id="085" stroke="none" stroke-width="1" fill="none" fill-rule="evenodd">
        <polygon id="Path" fill="#000000" fill-rule="nonzero" points="3 18 3 16 9 16 9 18"></polygon>
        <polygon id="Path" fill="#000000" fill-rule="nonzero" points="1 16 1 4 3 4 3 16"></polygon>
        <polygon id="Path" fill="#000000" fill-rule="nonzero" points="9 16 9 4 11 4 11 16"></polygon>
    </g>
</symbol><symbol viewBox="0 0 12 22" id="minecraft-text-086">
    <title>086</title>
    <g id="086" stroke="none" stroke-width="1" fill="none" fill-rule="evenodd">
        <polygon id="Path" fill="#000000" fill-rule="nonzero" points="5 18 5 16 7 16 7 18"></polygon>
        <polygon id="Path" fill="#000000" fill-rule="nonzero" points="3 16 3 12 5 12 5 16"></polygon>
        <polygon id="Path" fill="#000000" fill-rule="nonzero" points="7 16 7 12 9 12 9 16"></polygon>
        <polygon id="Path" fill="#000000" fill-rule="nonzero" points="1 12 1 4 3 4 3 12"></polygon>
        <polygon id="Path" fill="#000000" fill-rule="nonzero" points="9 12 9 4 11 4 11 12"></polygon>
    </g>
</symbol><symbol viewBox="0 0 12 22" id="minecraft-text-087">
    <title>087</title>
    <g id="087" stroke="none" stroke-width="1" fill="none" fill-rule="evenodd">
        <polygon id="Path" fill="#000000" fill-rule="nonzero" points="5 14 5 12 7 12 7 14"></polygon>
        <polygon id="Path" fill="#000000" fill-rule="nonzero" points="1 18 1 4 3 4 3 14 5 14 5 16 3 16 3 18"></polygon>
        <polygon id="Path" fill="#000000" fill-rule="nonzero" points="9 18 9 16 7 16 7 14 9 14 9 4 11 4 11 18"></polygon>
    </g>
</symbol><symbol viewBox="0 0 12 22" id="minecraft-text-088">
    <title>088</title>
    <g id="088" stroke="none" stroke-width="1" fill="none" fill-rule="evenodd">
        <polygon id="Path" fill="#000000" fill-rule="nonzero" points="1 18 1 12 3 12 3 18"></polygon>
        <polygon id="Path" fill="#000000" fill-rule="nonzero" points="9 18 9 12 11 12 11 18"></polygon>
        <polygon id="Path" fill="#000000" fill-rule="nonzero" points="3 12 3 10 5 10 5 12"></polygon>
        <polygon id="Path" fill="#000000" fill-rule="nonzero" points="7 12 7 10 9 10 9 12"></polygon>
        <polygon id="Path" fill="#000000" fill-rule="nonzero" points="5 10 5 8 7 8 7 10"></polygon>
        <polygon id="Path" fill="#000000" fill-rule="nonzero" points="3 8 3 6 5 6 5 8"></polygon>
        <polygon id="Path" fill="#000000" fill-rule="nonzero" points="7 8 7 6 9 6 9 8"></polygon>
        <polygon id="Path" fill="#000000" fill-rule="nonzero" points="1 6 1 4 3 4 3 6"></polygon>
        <polygon id="Path" fill="#000000" fill-rule="nonzero" points="9 6 9 4 11 4 11 6"></polygon>
    </g>
</symbol><symbol viewBox="0 0 10 22" id="minecraft-text-089">
    <title>089</title>
    <g id="089" stroke="none" stroke-width="1" fill="none" fill-rule="evenodd">
        <polygon id="Path" fill="#000000" fill-rule="nonzero" points="4 18 4 8 6 8 6 18"></polygon>
        <polygon id="Path" fill="#000000" fill-rule="nonzero" points="2 8 2 6 4 6 4 8"></polygon>
        <polygon id="Path" fill="#000000" fill-rule="nonzero" points="6 8 6 6 8 6 8 8"></polygon>
        <polygon id="Path" fill="#000000" fill-rule="nonzero" points="0 6 0 4 2 4 2 6"></polygon>
        <polygon id="Path" fill="#000000" fill-rule="nonzero" points="8 6 8 4 10 4 10 6"></polygon>
    </g>
</symbol><symbol viewBox="0 0 12 22" id="minecraft-text-090">
    <title>090</title>
    <g id="090" stroke="none" stroke-width="1" fill="none" fill-rule="evenodd">
        <polygon id="Path" fill="#000000" fill-rule="nonzero" points="1 18 1 14 3 14 3 16 11 16 11 18"></polygon>
        <polygon id="Path" fill="#000000" fill-rule="nonzero" points="3 14 3 12 5 12 5 14"></polygon>
        <polygon id="Path" fill="#000000" fill-rule="nonzero" points="5 12 5 10 7 10 7 12"></polygon>
        <polygon id="Path" fill="#000000" fill-rule="nonzero" points="7 10 7 8 9 8 9 10"></polygon>
        <polygon id="Path" fill="#000000" fill-rule="nonzero" points="9 8 9 6 1 6 1 4 11 4 11 8"></polygon>
    </g>
</symbol><symbol viewBox="0 0 8 22" id="minecraft-text-091">
    <title>091</title>
    <g id="091" stroke="none" stroke-width="1" fill="none" fill-rule="evenodd">
        <polygon id="Path" fill="#000000" fill-rule="nonzero" points="1 18 1 4 7 4 7 6 3 6 3 16 7 16 7 18"></polygon>
    </g>
</symbol><symbol viewBox="0 0 12 22" id="minecraft-text-092">
    <title>092</title>
    <g id="092" stroke="none" stroke-width="1" fill="none" fill-rule="evenodd">
        <polygon id="Path" fill="#000000" fill-rule="nonzero" points="9 18 9 16 11 16 11 18"></polygon>
        <polygon id="Path" fill="#000000" fill-rule="nonzero" points="7 16 7 12 9 12 9 16"></polygon>
        <polygon id="Path" fill="#000000" fill-rule="nonzero" points="5 12 5 10 7 10 7 12"></polygon>
        <polygon id="Path" fill="#000000" fill-rule="nonzero" points="3 10 3 6 5 6 5 10"></polygon>
        <polygon id="Path" fill="#000000" fill-rule="nonzero" points="1 6 1 4 3 4 3 6"></polygon>
    </g>
</symbol><symbol viewBox="0 0 8 22" id="minecraft-text-093">
    <title>093</title>
    <g id="093" stroke="none" stroke-width="1" fill="none" fill-rule="evenodd">
        <polygon id="Path" fill="#000000" fill-rule="nonzero" points="1 18 1 16 5 16 5 6 1 6 1 4 7 4 7 18"></polygon>
    </g>
</symbol><symbol viewBox="0 0 12 22" id="minecraft-text-094">
    <title>094</title>
    <g id="094" stroke="none" stroke-width="1" fill="none" fill-rule="evenodd">
        <polygon id="Path" fill="#000000" fill-rule="nonzero" points="1 10 1 8 3 8 3 10"></polygon>
        <polygon id="Path" fill="#000000" fill-rule="nonzero" points="9 10 9 8 11 8 11 10"></polygon>
        <polygon id="Path" fill="#000000" fill-rule="nonzero" points="3 8 3 6 5 6 5 8"></polygon>
        <polygon id="Path" fill="#000000" fill-rule="nonzero" points="7 8 7 6 9 6 9 8"></polygon>
        <polygon id="Path" fill="#000000" fill-rule="nonzero" points="5 6 5 4 7 4 7 6"></polygon>
    </g>
</symbol><symbol viewBox="0 0 12 22" id="minecraft-text-095">
    <title>095</title>
    <g id="095" stroke="none" stroke-width="1" fill="none" fill-rule="evenodd">
        <polygon id="Path" fill="#000000" fill-rule="nonzero" points="1 20 1 18 11 18 11 20"></polygon>
    </g>
</symbol><symbol viewBox="0 0 6 22" id="minecraft-text-096">
    <title>096</title>
    <g id="096" stroke="none" stroke-width="1" fill="none" fill-rule="evenodd">
        <polygon id="Path" fill="#000000" fill-rule="nonzero" points="3 6 3 4 5 4 5 6"></polygon>
        <polygon id="Path" fill="#000000" fill-rule="nonzero" points="1 4 1 2 3 2 3 4"></polygon>
    </g>
</symbol><symbol viewBox="0 0 11 22" id="minecraft-text-097">
    <title>097</title>
    <g id="097" stroke="none" stroke-width="1" fill="none" fill-rule="evenodd">
        <polygon id="Path" fill="#000000" fill-rule="nonzero" points="0 16 0 14 2 14 2 16"></polygon>
        <polygon id="Path" fill="#000000" fill-rule="nonzero" points="2 18 2 16 8 16 8 14 2 14 2 12 8 12 8 10 10 10 10 18"></polygon>
        <polygon id="Path" fill="#000000" fill-rule="nonzero" points="2 10 2 8 8 8 8 10"></polygon>
    </g>
</symbol><symbol viewBox="0 0 12 22" id="minecraft-text-098">
    <title>098</title>
    <g id="098" stroke="none" stroke-width="1" fill="none" fill-rule="evenodd">
        <polygon id="Path" fill="#000000" fill-rule="nonzero" points="9 16 9 10 11 10 11 16"></polygon>
        <polygon id="Path" fill="#000000" fill-rule="nonzero" points="5 10 5 8 9 8 9 10"></polygon>
        <polygon id="Path" fill="#000000" fill-rule="nonzero" points="1 18 1 4 3 4 3 10 5 10 5 12 3 12 3 16 9 16 9 18"></polygon>
    </g>
</symbol><symbol viewBox="0 0 12 22" id="minecraft-text-099">
    <title>099</title>
    <g id="099" stroke="none" stroke-width="1" fill="none" fill-rule="evenodd">
        <polygon id="Path" fill="#000000" fill-rule="nonzero" points="3 18 3 16 9 16 9 18"></polygon>
        <polygon id="Path" fill="#000000" fill-rule="nonzero" points="9 16 9 14 11 14 11 16"></polygon>
        <polygon id="Path" fill="#000000" fill-rule="nonzero" points="1 16 1 10 3 10 3 16"></polygon>
        <polygon id="Path" fill="#000000" fill-rule="nonzero" points="9 12 9 10 11 10 11 12"></polygon>
        <polygon id="Path" fill="#000000" fill-rule="nonzero" points="3 10 3 8 9 8 9 10"></polygon>
    </g>
</symbol><symbol viewBox="0 0 12 22" id="minecraft-text-100">
    <title>100</title>
    <g id="100" stroke="none" stroke-width="1" fill="none" fill-rule="evenodd">
        <polygon id="Path" fill="#000000" fill-rule="nonzero" points="1 16 1 10 3 10 3 16"></polygon>
        <polygon id="Path" fill="#000000" fill-rule="nonzero" points="3 10 3 8 7 8 7 10"></polygon>
        <polygon id="Path" fill="#000000" fill-rule="nonzero" points="3 18 3 16 9 16 9 12 7 12 7 10 9 10 9 4 11 4 11 18"></polygon>
    </g>
</symbol><symbol viewBox="0 0 12 22" id="minecraft-text-101">
    <title>101</title>
    <g id="101" stroke="none" stroke-width="1" fill="none" fill-rule="evenodd">
        <polygon id="Path" fill="#000000" fill-rule="nonzero" points="3 18 3 16 11 16 11 18"></polygon>
        <polygon id="Path" fill="#000000" fill-rule="nonzero" points="1 16 1 10 3 10 3 12 9 12 9 10 11 10 11 14 3 14 3 16"></polygon>
        <polygon id="Path" fill="#000000" fill-rule="nonzero" points="3 10 3 8 9 8 9 10"></polygon>
    </g>
</symbol><symbol viewBox="0 0 9 22" id="minecraft-text-102">
    <title>102</title>
    <g id="102" stroke="none" stroke-width="1" fill="none" fill-rule="evenodd">
        <polygon id="Path" fill="#000000" fill-rule="nonzero" points="2 18 2 10 0 10 0 8 2 8 2 6 4 6 4 8 8 8 8 10 4 10 4 18"></polygon>
        <polygon id="Path" fill="#000000" fill-rule="nonzero" points="4 6 4 4 8 4 8 6"></polygon>
    </g>
</symbol><symbol viewBox="0 0 12 22" id="minecraft-text-103">
    <title>103</title>
    <g id="103" stroke="none" stroke-width="1" fill="none" fill-rule="evenodd">
        <polygon id="Path" fill="#000000" fill-rule="nonzero" points="1 20 1 18 9 18 9 20"></polygon>
        <polygon id="Path" fill="#000000" fill-rule="nonzero" points="1 14 1 10 3 10 3 14"></polygon>
        <polygon id="Path" fill="#000000" fill-rule="nonzero" points="9 18 9 16 3 16 3 14 9 14 9 10 3 10 3 8 11 8 11 18"></polygon>
    </g>
</symbol><symbol viewBox="0 0 12 22" id="minecraft-text-104">
    <title>104</title>
    <g id="104" stroke="none" stroke-width="1" fill="none" fill-rule="evenodd">
        <polygon id="Path" fill="#000000" fill-rule="nonzero" points="9 18 9 10 11 10 11 18"></polygon>
        <polygon id="Path" fill="#000000" fill-rule="nonzero" points="5 10 5 8 9 8 9 10"></polygon>
        <polygon id="Path" fill="#000000" fill-rule="nonzero" points="1 18 1 4 3 4 3 10 5 10 5 12 3 12 3 18"></polygon>
    </g>
</symbol><symbol viewBox="0 0 4 22" id="minecraft-text-105">
    <title>105</title>
    <g id="105" stroke="none" stroke-width="1" fill="none" fill-rule="evenodd">
        <polygon id="Path" fill="#000000" fill-rule="nonzero" points="1 18 1 8 3 8 3 18"></polygon>
        <polygon id="Path" fill="#000000" fill-rule="nonzero" points="1 6 1 4 3 4 3 6"></polygon>
    </g>
</symbol><symbol viewBox="0 0 11 22" id="minecraft-text-106">
    <title>106</title>
    <g id="106" stroke="none" stroke-width="1" fill="none" fill-rule="evenodd">
        <polygon id="Path" fill="#000000" fill-rule="nonzero" points="2 20 2 18 8 18 8 20"></polygon>
        <polygon id="Path" fill="#000000" fill-rule="nonzero" points="0 18 0 14 2 14 2 18"></polygon>
        <polygon id="Path" fill="#000000" fill-rule="nonzero" points="8 18 8 8 10 8 10 18"></polygon>
        <polygon id="Path" fill="#000000" fill-rule="nonzero" points="8 6 8 4 10 4 10 6"></polygon>
    </g>
</symbol><symbol viewBox="0 0 10 22" id="minecraft-text-107">
    <title>107</title>
    <g id="107" stroke="none" stroke-width="1" fill="none" fill-rule="evenodd">
        <polygon id="Path" fill="#000000" fill-rule="nonzero" points="7 18 7 16 9 16 9 18"></polygon>
        <polygon id="Path" fill="#000000" fill-rule="nonzero" points="5 16 5 14 7 14 7 16"></polygon>
        <polygon id="Path" fill="#000000" fill-rule="nonzero" points="5 12 5 10 7 10 7 12"></polygon>
        <polygon id="Path" fill="#000000" fill-rule="nonzero" points="7 10 7 8 9 8 9 10"></polygon>
        <polygon id="Path" fill="#000000" fill-rule="nonzero" points="1 18 1 4 3 4 3 12 5 12 5 14 3 14 3 18"></polygon>
    </g>
</symbol><symbol viewBox="0 0 5 22" id="minecraft-text-108">
    <title>108</title>
    <g id="108" stroke="none" stroke-width="1" fill="none" fill-rule="evenodd">
        <polygon id="Path" fill="#000000" fill-rule="nonzero" points="3 18 3 16 5 16 5 18"></polygon>
        <polygon id="Path" fill="#000000" fill-rule="nonzero" points="1 16 1 4 3 4 3 16"></polygon>
    </g>
</symbol><symbol viewBox="0 0 12 22" id="minecraft-text-109">
    <title>109</title>
    <g id="109" stroke="none" stroke-width="1" fill="none" fill-rule="evenodd">
        <polygon id="Path" fill="#000000" fill-rule="nonzero" points="5 14 5 10 7 10 7 14"></polygon>
        <polygon id="Path" fill="#000000" fill-rule="nonzero" points="9 18 9 10 11 10 11 18"></polygon>
        <polygon id="Path" fill="#000000" fill-rule="nonzero" points="1 18 1 8 5 8 5 10 3 10 3 18"></polygon>
        <polygon id="Path" fill="#000000" fill-rule="nonzero" points="7 10 7 8 9 8 9 10"></polygon>
    </g>
</symbol><symbol viewBox="0 0 12 22" id="minecraft-text-110">
    <title>110</title>
    <g id="110" stroke="none" stroke-width="1" fill="none" fill-rule="evenodd">
        <polygon id="Path" fill="#000000" fill-rule="nonzero" points="9 18 9 10 11 10 11 18"></polygon>
        <polygon id="Path" fill="#000000" fill-rule="nonzero" points="1 18 1 8 9 8 9 10 3 10 3 18"></polygon>
    </g>
</symbol><symbol viewBox="0 0 12 22" id="minecraft-text-111">
    <title>111</title>
    <g id="111" stroke="none" stroke-width="1" fill="none" fill-rule="evenodd">
        <polygon id="Path" fill="#000000" fill-rule="nonzero" points="3 18 3 16 9 16 9 18"></polygon>
        <polygon id="Path" fill="#000000" fill-rule="nonzero" points="1 16 1 10 3 10 3 16"></polygon>
        <polygon id="Path" fill="#000000" fill-rule="nonzero" points="9 16 9 10 11 10 11 16"></polygon>
        <polygon id="Path" fill="#000000" fill-rule="nonzero" points="3 10 3 8 9 8 9 10"></polygon>
    </g>
</symbol><symbol viewBox="0 0 12 22" id="minecraft-text-112">
    <title>112</title>
    <g id="112" stroke="none" stroke-width="1" fill="none" fill-rule="evenodd">
        <polygon id="Path" fill="#000000" fill-rule="nonzero" points="9 14 9 10 11 10 11 14"></polygon>
        <polygon id="Path" fill="#000000" fill-rule="nonzero" points="1 20 1 8 3 8 3 10 5 10 5 12 3 12 3 14 9 14 9 16 3 16 3 20"></polygon>
        <polygon id="Path" fill="#000000" fill-rule="nonzero" points="5 10 5 8 9 8 9 10"></polygon>
    </g>
</symbol><symbol viewBox="0 0 12 22" id="minecraft-text-113">
    <title>113</title>
    <g id="113" stroke="none" stroke-width="1" fill="none" fill-rule="evenodd">
        <polygon id="Path" fill="#000000" fill-rule="nonzero" points="1 14 1 10 3 10 3 14"></polygon>
        <polygon id="Path" fill="#000000" fill-rule="nonzero" points="3 10 3 8 7 8 7 10"></polygon>
        <polygon id="Path" fill="#000000" fill-rule="nonzero" points="9 20 9 16 3 16 3 14 9 14 9 12 7 12 7 10 9 10 9 8 11 8 11 20"></polygon>
    </g>
</symbol><symbol viewBox="0 0 11 22" id="minecraft-text-114">
    <title>114</title>
    <g id="114" stroke="none" stroke-width="1" fill="none" fill-rule="evenodd">
        <polygon id="Path" fill="#000000" fill-rule="nonzero" points="9 12 9 10 11 10 11 12"></polygon>
        <polygon id="Path" fill="#000000" fill-rule="nonzero" points="1 18 1 8 3 8 3 10 5 10 5 12 3 12 3 18"></polygon>
        <polygon id="Path" fill="#000000" fill-rule="nonzero" points="5 10 5 8 9 8 9 10"></polygon>
    </g>
</symbol><symbol viewBox="0 0 12 22" id="minecraft-text-115">
    <title>115</title>
    <g id="115" stroke="none" stroke-width="1" fill="none" fill-rule="evenodd">
        <polygon id="Path" fill="#000000" fill-rule="nonzero" points="1 18 1 16 9 16 9 18"></polygon>
        <polygon id="Path" fill="#000000" fill-rule="nonzero" points="9 16 9 14 11 14 11 16"></polygon>
        <polygon id="Path" fill="#000000" fill-rule="nonzero" points="3 14 3 12 9 12 9 14"></polygon>
        <polygon id="Path" fill="#000000" fill-rule="nonzero" points="1 12 1 10 3 10 3 12"></polygon>
        <polygon id="Path" fill="#000000" fill-rule="nonzero" points="3 10 3 8 11 8 11 10"></polygon>
    </g>
</symbol><symbol viewBox="0 0 7 22" id="minecraft-text-116">
    <title>116</title>
    <g id="116" stroke="none" stroke-width="1" fill="none" fill-rule="evenodd">
        <polygon id="Path" fill="#000000" fill-rule="nonzero" points="4 18 4 16 6 16 6 18"></polygon>
        <polygon id="Path" fill="#000000" fill-rule="nonzero" points="2 16 2 10 1.13242749e-14 10 1.13242749e-14 8 2 8 2 4 4 4 4 8 6 8 6 10 4 10 4 16"></polygon>
    </g>
</symbol><symbol viewBox="0 0 12 22" id="minecraft-text-117">
    <title>117</title>
    <g id="117" stroke="none" stroke-width="1" fill="none" fill-rule="evenodd">
        <polygon id="Path" fill="#000000" fill-rule="nonzero" points="1 16 1 8 3 8 3 16"></polygon>
        <polygon id="Path" fill="#000000" fill-rule="nonzero" points="3 18 3 16 9 16 9 8 11 8 11 18"></polygon>
    </g>
</symbol><symbol viewBox="0 0 12 22" id="minecraft-text-118">
    <title>118</title>
    <g id="118" stroke="none" stroke-width="1" fill="none" fill-rule="evenodd">
        <polygon id="Path" fill="#000000" fill-rule="nonzero" points="5 18 5 16 7 16 7 18"></polygon>
        <polygon id="Path" fill="#000000" fill-rule="nonzero" points="3 16 3 14 5 14 5 16"></polygon>
        <polygon id="Path" fill="#000000" fill-rule="nonzero" points="7 16 7 14 9 14 9 16"></polygon>
        <polygon id="Path" fill="#000000" fill-rule="nonzero" points="1 14 1 8 3 8 3 14"></polygon>
        <polygon id="Path" fill="#000000" fill-rule="nonzero" points="9 14 9 8 11 8 11 14"></polygon>
    </g>
</symbol><symbol viewBox="0 0 12 22" id="minecraft-text-119">
    <title>119</title>
    <g id="119" stroke="none" stroke-width="1" fill="none" fill-rule="evenodd">
        <polygon id="Path" fill="#000000" fill-rule="nonzero" points="1 16 1 8 3 8 3 16"></polygon>
        <polygon id="Path" fill="#000000" fill-rule="nonzero" points="3 18 3 16 5 16 5 12 7 12 7 16 9 16 9 8 11 8 11 18"></polygon>
    </g>
</symbol><symbol viewBox="0 0 12 22" id="minecraft-text-120">
    <title>120</title>
    <g id="120" stroke="none" stroke-width="1" fill="none" fill-rule="evenodd">
        <polygon id="Path" fill="#000000" fill-rule="nonzero" points="1 18 1 16 3 16 3 18"></polygon>
        <polygon id="Path" fill="#000000" fill-rule="nonzero" points="9 18 9 16 11 16 11 18"></polygon>
        <polygon id="Path" fill="#000000" fill-rule="nonzero" points="3 16 3 14 5 14 5 16"></polygon>
        <polygon id="Path" fill="#000000" fill-rule="nonzero" points="7 16 7 14 9 14 9 16"></polygon>
        <polygon id="Path" fill="#000000" fill-rule="nonzero" points="5 14 5 12 7 12 7 14"></polygon>
        <polygon id="Path" fill="#000000" fill-rule="nonzero" points="3 12 3 10 5 10 5 12"></polygon>
        <polygon id="Path" fill="#000000" fill-rule="nonzero" points="7 12 7 10 9 10 9 12"></polygon>
        <polygon id="Path" fill="#000000" fill-rule="nonzero" points="1 10 1 8 3 8 3 10"></polygon>
        <polygon id="Path" fill="#000000" fill-rule="nonzero" points="9 10 9 8 11 8 11 10"></polygon>
    </g>
</symbol><symbol viewBox="0 0 12 22" id="minecraft-text-121">
    <title>121</title>
    <g id="121" stroke="none" stroke-width="1" fill="none" fill-rule="evenodd">
        <polygon id="Path" fill="#000000" fill-rule="nonzero" points="1 20 1 18 9 18 9 20"></polygon>
        <polygon id="Path" fill="#000000" fill-rule="nonzero" points="1 14 1 8 3 8 3 14"></polygon>
        <polygon id="Path" fill="#000000" fill-rule="nonzero" points="9 18 9 16 3 16 3 14 9 14 9 8 11 8 11 18"></polygon>
    </g>
</symbol><symbol viewBox="0 0 12 22" id="minecraft-text-122">
    <title>122</title>
    <g id="122" stroke="none" stroke-width="1" fill="none" fill-rule="evenodd">
        <polygon id="Path" fill="#000000" fill-rule="nonzero" points="1 18 1 16 3 16 3 14 5 14 5 16 11 16 11 18"></polygon>
        <polygon id="Path" fill="#000000" fill-rule="nonzero" points="5 14 5 12 7 12 7 14"></polygon>
        <polygon id="Path" fill="#000000" fill-rule="nonzero" points="7 12 7 10 1 10 1 8 11 8 11 10 9 10 9 12"></polygon>
    </g>
</symbol></svg>