<svg width="12px" height="22px" viewBox="0 0 12 22" version="1.1" xmlns="http://www.w3.org/2000/svg" xmlns:xlink="http://www.w3.org/1999/xlink">
    <title>088</title>
    <g id="088" stroke="none" stroke-width="1" fill="none" fill-rule="evenodd">
        <polygon id="Path" fill="#000000" fill-rule="nonzero" points="1 18 1 12 3 12 3 18"></polygon>
        <polygon id="Path" fill="#000000" fill-rule="nonzero" points="9 18 9 12 11 12 11 18"></polygon>
        <polygon id="Path" fill="#000000" fill-rule="nonzero" points="3 12 3 10 5 10 5 12"></polygon>
        <polygon id="Path" fill="#000000" fill-rule="nonzero" points="7 12 7 10 9 10 9 12"></polygon>
        <polygon id="Path" fill="#000000" fill-rule="nonzero" points="5 10 5 8 7 8 7 10"></polygon>
        <polygon id="Path" fill="#000000" fill-rule="nonzero" points="3 8 3 6 5 6 5 8"></polygon>
        <polygon id="Path" fill="#000000" fill-rule="nonzero" points="7 8 7 6 9 6 9 8"></polygon>
        <polygon id="Path" fill="#000000" fill-rule="nonzero" points="1 6 1 4 3 4 3 6"></polygon>
        <polygon id="Path" fill="#000000" fill-rule="nonzero" points="9 6 9 4 11 4 11 6"></polygon>
    </g>
</svg>