<svg width="12px" height="22px" viewBox="0 0 12 22" version="1.1" xmlns="http://www.w3.org/2000/svg" xmlns:xlink="http://www.w3.org/1999/xlink">
    <title>120</title>
    <g id="120" stroke="none" stroke-width="1" fill="none" fill-rule="evenodd">
        <polygon id="Path" fill="#000000" fill-rule="nonzero" points="1 18 1 16 3 16 3 18"></polygon>
        <polygon id="Path" fill="#000000" fill-rule="nonzero" points="9 18 9 16 11 16 11 18"></polygon>
        <polygon id="Path" fill="#000000" fill-rule="nonzero" points="3 16 3 14 5 14 5 16"></polygon>
        <polygon id="Path" fill="#000000" fill-rule="nonzero" points="7 16 7 14 9 14 9 16"></polygon>
        <polygon id="Path" fill="#000000" fill-rule="nonzero" points="5 14 5 12 7 12 7 14"></polygon>
        <polygon id="Path" fill="#000000" fill-rule="nonzero" points="3 12 3 10 5 10 5 12"></polygon>
        <polygon id="Path" fill="#000000" fill-rule="nonzero" points="7 12 7 10 9 10 9 12"></polygon>
        <polygon id="Path" fill="#000000" fill-rule="nonzero" points="1 10 1 8 3 8 3 10"></polygon>
        <polygon id="Path" fill="#000000" fill-rule="nonzero" points="9 10 9 8 11 8 11 10"></polygon>
    </g>
</svg>