<svg width="16px" height="22px" viewBox="0 0 16 22" version="1.1" xmlns="http://www.w3.org/2000/svg" xmlns:xlink="http://www.w3.org/1999/xlink">
    <title>060</title>
    <g id="060" stroke="none" stroke-width="1" fill="none" fill-rule="evenodd">
        <path d="M6,2 L6,4 L9,4 L9,6 L12,6 L12.001,8 L15,8 L15,14 L12.001,14 L12,16 L9,16 L9,18 L6,18 L6,20 L1,20 L1,16 L4,16 L4,14 L7,14 L7,12 L10.001,12 L10.001,10 L7,10 L7,8 L4,8 L4,6 L1,6 L1,2 L6,2 Z" id="Combined-Shape" fill="#000000" transform="translate(8.000000, 11.000000) scale(-1, 1) translate(-8.000000, -11.000000) "></path>
    </g>
</svg>