<svg width="14px" height="22px" viewBox="0 0 14 22" version="1.1" xmlns="http://www.w3.org/2000/svg" xmlns:xlink="http://www.w3.org/1999/xlink">
    <title>065</title>
    <g id="065" stroke="none" stroke-width="1" fill="none" fill-rule="evenodd">
        <path d="M13,2 L13,20 L8,20 L8,14 L6,14 L6,20 L1,20 L1,2 L13,2 Z M8,8 L6,8 L6,9 L5,9 L5,12 L6,12 L6,11 L8,11 L8,12 L9,12 L9,9 L8,9 L8,8 Z M6,6 L4,6 L4,8 L6,8 L6,6 Z M10,6 L8,6 L8,8 L10,8 L10,6 Z" id="Combined-Shape" fill="#000000"></path>
    </g>
</svg>